<svg width="40" height="40" viewBox="0 0 40 40" fill="none" xmlns="http://www.w3.org/2000/svg">
<circle cx="20" cy="20" r="20" fill="#DBD9EE"/>
<path d="M24.3831 10.6515C21.4877 10.1661 18.5161 10.1661 15.6207 10.6515C14.5629 10.8289 13.7205 11.6409 13.5084 12.6939C12.5368 17.5176 12.4838 22.4813 13.3521 27.3247L13.7057 29.2966C13.8147 29.9047 14.556 30.1477 15.0038 29.7222L19.2714 25.668C19.6808 25.2791 20.323 25.2791 20.7324 25.668L25 29.7222C25.4478 30.1477 26.1891 29.9047 26.2981 29.2966L26.6517 27.3247C27.52 22.4813 27.467 17.5176 26.4954 12.6939C26.2833 11.6409 25.4409 10.8289 24.3831 10.6515Z" fill="#6C5FBC"/>
</svg>
