<svg width="210" height="207" viewBox="0 0 210 207" fill="none" xmlns="http://www.w3.org/2000/svg">
<rect x="1.13892" y="0.228763" width="207.428" height="205.722" rx="16.6204" fill="white" stroke="#EDF2F7" stroke-width="0.277838"/>
<path d="M84.1519 184.601V185.072H80.8895V184.734L82.9114 181.605H83.3797L82.8773 182.511L81.5407 184.601H84.1519ZM83.5224 181.605V186.12H82.9486V181.605H83.5224ZM86.0436 186.12H85.1009L85.1071 185.634H86.0436C86.3662 185.634 86.6349 185.566 86.8499 185.432C87.065 185.296 87.2262 185.105 87.3337 184.861C87.4433 184.615 87.4981 184.328 87.4981 183.999V183.723C87.4981 183.465 87.4671 183.235 87.405 183.035C87.343 182.832 87.2521 182.662 87.1321 182.523C87.0122 182.383 86.8654 182.276 86.6918 182.204C86.5202 182.131 86.3227 182.095 86.0995 182.095H85.0823V181.605H86.0995C86.3951 181.605 86.6649 181.655 86.9089 181.754C87.1528 181.851 87.3627 181.993 87.5384 182.179C87.7162 182.363 87.8527 182.586 87.9478 182.849C88.0429 183.109 88.0904 183.403 88.0904 183.729V183.999C88.0904 184.326 88.0429 184.621 87.9478 184.883C87.8527 185.144 87.7152 185.366 87.5353 185.55C87.3575 185.734 87.1425 185.875 86.8903 185.975C86.6401 186.072 86.3579 186.12 86.0436 186.12ZM85.4203 181.605V186.12H84.8218V181.605H85.4203Z" fill="#828282"/>
<path d="M115.914 184.654L115.455 184.537L115.681 182.288H117.998V182.818H116.168L116.032 184.047C116.114 183.999 116.219 183.955 116.345 183.913C116.473 183.872 116.62 183.851 116.785 183.851C116.994 183.851 117.181 183.887 117.346 183.96C117.512 184.03 117.652 184.131 117.768 184.264C117.886 184.396 117.976 184.555 118.038 184.741C118.1 184.927 118.131 185.135 118.131 185.365C118.131 185.582 118.101 185.781 118.041 185.963C117.983 186.145 117.895 186.304 117.777 186.441C117.66 186.575 117.511 186.679 117.331 186.754C117.153 186.828 116.943 186.865 116.701 186.865C116.519 186.865 116.347 186.841 116.183 186.791C116.022 186.739 115.877 186.662 115.749 186.558C115.623 186.453 115.52 186.323 115.439 186.168C115.361 186.011 115.311 185.827 115.29 185.616H115.836C115.861 185.785 115.911 185.928 115.985 186.044C116.059 186.159 116.157 186.247 116.277 186.307C116.398 186.365 116.54 186.394 116.701 186.394C116.838 186.394 116.959 186.37 117.064 186.323C117.17 186.275 117.259 186.207 117.331 186.118C117.403 186.029 117.458 185.922 117.495 185.796C117.535 185.669 117.554 185.528 117.554 185.371C117.554 185.228 117.535 185.096 117.495 184.974C117.456 184.852 117.397 184.745 117.319 184.654C117.242 184.563 117.148 184.493 117.036 184.443C116.925 184.392 116.796 184.366 116.652 184.366C116.459 184.366 116.314 184.392 116.214 184.443C116.117 184.495 116.017 184.565 115.914 184.654ZM120.131 186.803H119.189L119.195 186.317H120.131C120.454 186.317 120.723 186.249 120.938 186.115C121.153 185.979 121.314 185.788 121.421 185.544C121.531 185.298 121.586 185.011 121.586 184.682V184.406C121.586 184.148 121.555 183.918 121.493 183.718C121.431 183.515 121.34 183.345 121.22 183.206C121.1 183.066 120.953 182.959 120.779 182.887C120.608 182.814 120.41 182.778 120.187 182.778H119.17V182.288H120.187C120.483 182.288 120.753 182.338 120.997 182.437C121.24 182.534 121.45 182.676 121.626 182.862C121.804 183.046 121.94 183.269 122.035 183.532C122.131 183.792 122.178 184.086 122.178 184.412V184.682C122.178 185.009 122.131 185.304 122.035 185.566C121.94 185.827 121.803 186.049 121.623 186.233C121.445 186.417 121.23 186.558 120.978 186.658C120.728 186.755 120.446 186.803 120.131 186.803ZM119.508 182.288V186.803H118.909V182.288H119.508Z" fill="#828282"/>
<path d="M151.478 182.282H151.528V182.769H151.478C151.174 182.769 150.92 182.818 150.715 182.918C150.51 183.015 150.348 183.146 150.228 183.312C150.108 183.475 150.021 183.659 149.968 183.864C149.916 184.068 149.89 184.276 149.89 184.487V185.151C149.89 185.351 149.914 185.529 149.961 185.684C150.009 185.837 150.074 185.966 150.157 186.072C150.24 186.177 150.333 186.257 150.436 186.31C150.541 186.364 150.651 186.391 150.765 186.391C150.897 186.391 151.015 186.366 151.118 186.317C151.222 186.265 151.308 186.194 151.379 186.103C151.451 186.01 151.506 185.9 151.543 185.774C151.58 185.648 151.599 185.509 151.599 185.358C151.599 185.224 151.582 185.095 151.549 184.971C151.516 184.845 151.466 184.733 151.397 184.636C151.329 184.537 151.243 184.459 151.14 184.403C151.039 184.345 150.918 184.316 150.777 184.316C150.618 184.316 150.469 184.356 150.331 184.434C150.194 184.511 150.081 184.612 149.992 184.738C149.906 184.862 149.856 184.998 149.844 185.144L149.54 185.141C149.569 184.91 149.622 184.712 149.701 184.549C149.782 184.384 149.881 184.249 149.999 184.146C150.119 184.04 150.252 183.964 150.399 183.916C150.548 183.867 150.705 183.842 150.87 183.842C151.095 183.842 151.29 183.884 151.453 183.969C151.616 184.054 151.751 184.167 151.856 184.31C151.962 184.451 152.039 184.61 152.089 184.788C152.141 184.963 152.166 185.144 152.166 185.33C152.166 185.543 152.136 185.743 152.076 185.929C152.017 186.115 151.927 186.278 151.807 186.419C151.689 186.56 151.543 186.669 151.369 186.748C151.196 186.826 150.994 186.865 150.765 186.865C150.521 186.865 150.308 186.816 150.126 186.717C149.944 186.615 149.793 186.481 149.673 186.313C149.553 186.146 149.463 185.96 149.403 185.755C149.343 185.551 149.313 185.343 149.313 185.132V184.862C149.313 184.544 149.345 184.232 149.409 183.926C149.474 183.62 149.584 183.343 149.741 183.094C149.9 182.846 150.121 182.649 150.402 182.502C150.683 182.355 151.042 182.282 151.478 182.282ZM154.219 186.803H153.277L153.283 186.317H154.219C154.542 186.317 154.811 186.249 155.026 186.115C155.241 185.979 155.402 185.788 155.51 185.544C155.619 185.298 155.674 185.011 155.674 184.682V184.406C155.674 184.148 155.643 183.918 155.581 183.718C155.519 183.515 155.428 183.345 155.308 183.206C155.188 183.066 155.041 182.959 154.868 182.887C154.696 182.814 154.499 182.778 154.275 182.778H153.258V182.288H154.275C154.571 182.288 154.841 182.338 155.085 182.437C155.329 182.534 155.538 182.676 155.714 182.862C155.892 183.046 156.028 183.269 156.124 183.532C156.219 183.792 156.266 184.086 156.266 184.412V184.682C156.266 185.009 156.219 185.304 156.124 185.566C156.028 185.827 155.891 186.049 155.711 186.233C155.533 186.417 155.318 186.558 155.066 186.658C154.816 186.755 154.534 186.803 154.219 186.803ZM153.596 182.288V186.803H152.998V182.288H153.596Z" fill="#828282"/>
<path d="M183.71 182.288V182.611L181.84 186.803H181.235L183.102 182.76H180.658V182.288H183.71ZM185.735 186.803H184.792L184.798 186.317H185.735C186.058 186.317 186.326 186.249 186.541 186.115C186.756 185.979 186.918 185.788 187.025 185.544C187.135 185.298 187.189 185.011 187.189 184.682V184.406C187.189 184.148 187.158 183.918 187.096 183.718C187.034 183.515 186.943 183.345 186.824 183.206C186.704 183.066 186.557 182.959 186.383 182.887C186.212 182.814 186.014 182.778 185.791 182.778H184.774V182.288H185.791C186.087 182.288 186.356 182.338 186.6 182.437C186.844 182.534 187.054 182.676 187.23 182.862C187.408 183.046 187.544 183.269 187.639 183.532C187.734 183.792 187.782 184.086 187.782 184.412V184.682C187.782 185.009 187.734 185.304 187.639 185.566C187.544 185.827 187.407 186.049 187.227 186.233C187.049 186.417 186.834 186.558 186.582 186.658C186.331 186.755 186.049 186.803 185.735 186.803ZM185.112 182.288V186.803H184.513V182.288H185.112Z" fill="#828282"/>
<rect x="30.3438" y="175.345" width="27.8703" height="19.709" rx="9.85449" fill="#E7E7E7" fill-opacity="0.92"/>
<path d="M42.9804 186.411V187.108H39.8917V186.513L41.3523 184.947C41.4991 184.783 41.6149 184.64 41.6997 184.516C41.7844 184.39 41.8454 184.277 41.8826 184.178C41.9219 184.076 41.9415 183.98 41.9415 183.889C41.9415 183.753 41.9188 183.636 41.8733 183.539C41.8278 183.44 41.7606 183.363 41.6717 183.309C41.5849 183.256 41.4774 183.229 41.3492 183.229C41.2128 183.229 41.0949 183.262 40.9957 183.328C40.8985 183.394 40.8241 183.486 40.7724 183.604C40.7228 183.722 40.698 183.855 40.698 184.004H39.8017C39.8017 183.735 39.8658 183.489 39.994 183.266C40.1222 183.041 40.3031 182.862 40.5367 182.729C40.7703 182.595 41.0474 182.528 41.3678 182.528C41.6841 182.528 41.9508 182.58 42.1679 182.683C42.3871 182.784 42.5525 182.931 42.6641 183.123C42.7778 183.313 42.8347 183.541 42.8347 183.806C42.8347 183.954 42.8109 184.1 42.7634 184.243C42.7158 184.383 42.6476 184.524 42.5587 184.665C42.4718 184.803 42.3664 184.944 42.2424 185.086C42.1183 185.229 41.9808 185.377 41.8299 185.53L41.0453 186.411H42.9804ZM45.0179 187.108H44.0348L44.041 186.383H45.0179C45.2619 186.383 45.4676 186.328 45.6351 186.218C45.8025 186.107 45.9286 185.944 46.0134 185.731C46.1002 185.518 46.1436 185.261 46.1436 184.959V184.739C46.1436 184.507 46.1188 184.304 46.0692 184.128C46.0217 183.952 45.9503 183.804 45.8552 183.685C45.7601 183.565 45.6433 183.475 45.5048 183.415C45.3663 183.353 45.2071 183.322 45.0272 183.322H44.0162V182.593H45.0272C45.3291 182.593 45.6051 182.645 45.8552 182.748C46.1075 182.849 46.3256 182.995 46.5096 183.185C46.6936 183.375 46.8352 183.603 46.9345 183.868C47.0358 184.13 47.0864 184.423 47.0864 184.745V184.959C47.0864 185.28 47.0358 185.572 46.9345 185.837C46.8352 186.101 46.6936 186.329 46.5096 186.519C46.3277 186.707 46.1095 186.853 45.8552 186.956C45.603 187.058 45.3239 187.108 45.0179 187.108ZM44.562 182.593V187.108H43.6317V182.593H44.562Z" fill="#151515"/>
<path d="M1.07422 145.037C12.1827 145.037 13.2577 159.487 25.0828 159.487C36.9079 159.487 34.0412 118.42 45.1497 118.42C56.2581 118.42 50.1664 83.817 65.5749 83.817C80.9834 83.817 73.8166 118.42 87.7918 118.42C101.767 118.42 99.6169 78.0265 108.575 78.0265C117.534 78.0265 115.025 102.069 125.775 102.069C136.526 102.069 131.509 62.4132 142.976 62.4132C154.442 62.4132 153.367 79.7236 163.759 79.7236C174.151 79.7236 175.226 99.7875 189.559 99.7875C203.893 99.7875 194.935 122.151 208.551 122.151" stroke="#6C5FBC" stroke-width="1.98779" stroke-linecap="round" stroke-linejoin="round"/>
<path d="M177.197 87.1631C177.197 89.2775 175.6 90.8746 173.77 90.8746C171.941 90.8746 170.344 89.2775 170.344 87.1631C170.344 85.0486 171.941 83.4516 173.77 83.4516C175.6 83.4516 177.197 85.0486 177.197 87.1631Z" fill="#C5BFED" stroke="#6C5FBC" stroke-width="2.22012"/>
<rect x="173.151" y="65.2103" width="25.738" height="11.9386" rx="5.96928" fill="#6C5FBC"/>
<path d="M181.814 71.9314C181.814 72.1238 181.764 72.3051 181.664 72.4753C181.567 72.6418 181.423 72.7806 181.231 72.8916C181.042 72.9989 180.818 73.0618 180.559 73.0803V73.5299H180.204V73.0747C179.834 73.0414 179.536 72.9304 179.31 72.7417C179.085 72.5493 178.968 72.2903 178.961 71.9647H179.793C179.815 72.2311 179.952 72.3921 180.204 72.4476V71.3875C179.938 71.3209 179.723 71.2543 179.56 71.1876C179.397 71.121 179.257 71.0137 179.138 70.8657C179.02 70.7177 178.961 70.5161 178.961 70.2608C178.961 69.9388 179.075 69.6761 179.305 69.4726C179.538 69.2691 179.838 69.1525 180.204 69.1229V68.6734H180.559V69.1229C180.914 69.1525 181.197 69.2598 181.408 69.4449C181.623 69.6299 181.743 69.8852 181.769 70.2108H180.931C180.92 70.1035 180.881 70.011 180.814 69.9333C180.752 69.8519 180.666 69.7945 180.559 69.7612V70.8102C180.837 70.8805 181.055 70.949 181.214 71.0156C181.377 71.0785 181.518 71.1839 181.636 71.332C181.754 71.4763 181.814 71.6761 181.814 71.9314ZM179.771 70.2219C179.771 70.344 179.808 70.4439 179.882 70.5216C179.956 70.5956 180.063 70.6567 180.204 70.7048V69.7446C180.071 69.7631 179.965 69.813 179.888 69.8944C179.81 69.9758 179.771 70.085 179.771 70.2219ZM180.559 72.4587C180.7 72.4328 180.809 72.3754 180.887 72.2866C180.968 72.1978 181.009 72.0905 181.009 71.9647C181.009 71.8426 180.97 71.7445 180.892 71.6705C180.814 71.5965 180.703 71.5355 180.559 71.4874V72.4587ZM182.559 72.2589V71.6483L184.374 69.0508H185.279V71.5817H185.767V72.2589H185.279V73.047H184.502V72.2589H182.559ZM184.551 69.8833L183.414 71.5817H184.551V69.8833ZM186.262 70.9712C186.262 70.3311 186.376 69.8297 186.606 69.4671C186.839 69.1044 187.224 68.9231 187.76 68.9231C188.297 68.9231 188.68 69.1044 188.909 69.4671C189.142 69.8297 189.259 70.3311 189.259 70.9712C189.259 71.615 189.142 72.1201 188.909 72.4864C188.68 72.8527 188.297 73.0359 187.76 73.0359C187.224 73.0359 186.839 72.8527 186.606 72.4864C186.376 72.1201 186.262 71.615 186.262 70.9712ZM188.493 70.9712C188.493 70.6974 188.474 70.468 188.437 70.283C188.404 70.0942 188.334 69.9407 188.226 69.8223C188.123 69.7039 187.967 69.6447 187.76 69.6447C187.553 69.6447 187.396 69.7039 187.288 69.8223C187.185 69.9407 187.115 70.0942 187.078 70.283C187.044 70.468 187.028 70.6974 187.028 70.9712C187.028 71.2524 187.044 71.4892 187.078 71.6816C187.111 71.8703 187.181 72.0239 187.288 72.1423C187.396 72.257 187.553 72.3144 187.76 72.3144C187.967 72.3144 188.125 72.257 188.232 72.1423C188.339 72.0239 188.41 71.8703 188.443 71.6816C188.476 71.4892 188.493 71.2524 188.493 70.9712ZM190.749 71.9092C190.779 72.072 190.845 72.1978 190.949 72.2866C191.056 72.3717 191.199 72.4143 191.376 72.4143C191.606 72.4143 191.772 72.3199 191.876 72.1312C191.979 71.9388 192.031 71.6169 192.031 71.1654C191.946 71.2839 191.826 71.3764 191.67 71.443C191.519 71.5096 191.354 71.5429 191.176 71.5429C190.94 71.5429 190.725 71.4948 190.533 71.3986C190.344 71.2987 190.194 71.1525 190.083 70.9601C189.972 70.764 189.916 70.5272 189.916 70.2497C189.916 69.8389 190.039 69.5133 190.283 69.2728C190.527 69.0286 190.86 68.9065 191.282 68.9065C191.807 68.9065 192.177 69.0748 192.392 69.4116C192.61 69.7483 192.719 70.2552 192.719 70.9323C192.719 71.4134 192.677 71.8074 192.592 72.1145C192.51 72.4217 192.368 72.6548 192.164 72.8139C191.965 72.973 191.691 73.0525 191.343 73.0525C191.069 73.0525 190.836 73.0007 190.644 72.8971C190.451 72.7898 190.303 72.6511 190.2 72.4809C190.1 72.307 190.042 72.1164 190.027 71.9092H190.749ZM191.337 70.9101C191.53 70.9101 191.681 70.8509 191.792 70.7325C191.903 70.6141 191.959 70.455 191.959 70.2552C191.959 70.0369 191.9 69.8685 191.781 69.7501C191.667 69.628 191.509 69.567 191.31 69.567C191.11 69.567 190.951 69.6299 190.832 69.7557C190.718 69.8778 190.66 70.0406 190.66 70.2441C190.66 70.4402 190.716 70.6012 190.827 70.727C190.941 70.8491 191.112 70.9101 191.337 70.9101Z" fill="white"/>
<line opacity="0.09" x1="1.32803" y1="139.117" x2="208.024" y2="139.117" stroke="#6C5FBC" stroke-width="0.585257" stroke-linecap="round"/>
<line opacity="0.09" x1="2.01211" y1="114.397" x2="208.708" y2="114.397" stroke="#6C5FBC" stroke-width="0.585257" stroke-linecap="round"/>
<line opacity="0.09" x1="1.32778" y1="88.9505" x2="208.023" y2="88.9505" stroke="#6C5FBC" stroke-width="0.585257" stroke-linecap="round"/>
<g clip-path="url(#clip0_1_627)">
<rect x="27.5166" y="13.3108" width="37.9194" height="18.2662" rx="9.13309" fill="#6C5FBC"/>
<path d="M43.7437 20.0198V24.4438H43.1619V21.145L41.6915 24.4438H41.2823L39.8055 21.1386V24.4438H39.2238V20.0198H39.8503L41.4869 23.6767L43.1236 20.0198H43.7437ZM44.513 22.6793C44.513 22.3213 44.5854 22.0081 44.7304 21.7395C44.8753 21.4668 45.0735 21.2558 45.3249 21.1066C45.5807 20.9574 45.8641 20.8829 46.1752 20.8829C46.4821 20.8829 46.7485 20.9489 46.9744 21.081C47.2003 21.2132 47.3686 21.3794 47.4794 21.5797V20.9404H48.0676V24.4438H47.4794V23.7917C47.3643 23.9963 47.1917 24.1668 46.9616 24.3032C46.7357 24.4353 46.4714 24.5014 46.1688 24.5014C45.8577 24.5014 45.5764 24.4247 45.3249 24.2712C45.0735 24.1178 44.8753 23.9026 44.7304 23.6255C44.5854 23.3485 44.513 23.0331 44.513 22.6793ZM47.4794 22.6857C47.4794 22.4215 47.4261 22.1913 47.3196 21.9953C47.213 21.7992 47.0681 21.65 46.8849 21.5477C46.7058 21.4412 46.5077 21.3879 46.2903 21.3879C46.0729 21.3879 45.8747 21.4391 45.6957 21.5414C45.5167 21.6436 45.3739 21.7928 45.2674 21.9889C45.1608 22.1849 45.1076 22.4151 45.1076 22.6793C45.1076 22.9478 45.1608 23.1823 45.2674 23.3826C45.3739 23.5786 45.5167 23.7299 45.6957 23.8365C45.8747 23.9388 46.0729 23.9899 46.2903 23.9899C46.5077 23.9899 46.7058 23.9388 46.8849 23.8365C47.0681 23.7299 47.213 23.5786 47.3196 23.3826C47.4261 23.1823 47.4794 22.95 47.4794 22.6857ZM49.3512 20.3714C49.2404 20.3714 49.1466 20.333 49.0699 20.2563C48.9932 20.1796 48.9548 20.0858 48.9548 19.975C48.9548 19.8642 48.9932 19.7704 49.0699 19.6937C49.1466 19.617 49.2404 19.5787 49.3512 19.5787C49.4578 19.5787 49.5473 19.617 49.6197 19.6937C49.6964 19.7704 49.7348 19.8642 49.7348 19.975C49.7348 20.0858 49.6964 20.1796 49.6197 20.2563C49.5473 20.333 49.4578 20.3714 49.3512 20.3714ZM49.6325 20.9404V24.4438H49.0507V20.9404H49.6325ZM52.331 20.8765C52.7572 20.8765 53.1025 21.0065 53.3667 21.2664C53.631 21.5222 53.7631 21.893 53.7631 22.3789V24.4438H53.1877V22.462C53.1877 22.1125 53.1003 21.8461 52.9256 21.6628C52.7508 21.4753 52.5122 21.3815 52.2096 21.3815C51.9027 21.3815 51.6576 21.4774 51.4743 21.6692C51.2953 21.861 51.2058 22.1402 51.2058 22.5067V24.4438H50.6241V20.9404H51.2058V21.4391C51.3209 21.2601 51.4765 21.1215 51.6725 21.0235C51.8729 20.9255 52.0924 20.8765 52.331 20.8765Z" fill="white"/>
<path d="M84.3277 19.6695L82.944 24.4438H82.2453L81.1357 20.6011L79.9849 24.4438L79.2931 24.4507L77.9574 19.6695H78.6218L79.663 23.7178L80.8137 19.6695H81.5124L82.6084 23.7041L83.6564 19.6695H84.3277ZM88.5032 22.4232C88.5032 22.5419 88.4964 22.6675 88.4827 22.7999H85.4825C85.5053 23.1698 85.6309 23.4598 85.8592 23.6698C86.0921 23.8753 86.3729 23.9781 86.7017 23.9781C86.9712 23.9781 87.1949 23.9164 87.373 23.7931C87.5557 23.6653 87.6835 23.4963 87.7566 23.2862H88.4279C88.3274 23.647 88.1265 23.9415 87.8251 24.1699C87.5237 24.3936 87.1493 24.5055 86.7017 24.5055C86.3455 24.5055 86.0259 24.4256 85.7428 24.2658C85.4642 24.1059 85.245 23.8799 85.0852 23.5876C84.9254 23.2908 84.8454 22.9483 84.8454 22.5601C84.8454 22.172 84.9231 21.8318 85.0783 21.5395C85.2336 21.2473 85.4505 21.0235 85.7291 20.8682C86.0122 20.7084 86.3364 20.6285 86.7017 20.6285C87.0579 20.6285 87.373 20.7061 87.647 20.8614C87.921 21.0167 88.1311 21.2313 88.2772 21.5053C88.4279 21.7747 88.5032 22.0807 88.5032 22.4232ZM87.8594 22.293C87.8594 22.0555 87.8068 21.8523 87.7018 21.6834C87.5968 21.5098 87.4529 21.3797 87.2703 21.2929C87.0922 21.2016 86.8935 21.1559 86.6743 21.1559C86.3592 21.1559 86.0898 21.2564 85.8661 21.4573C85.6469 21.6583 85.5213 21.9368 85.4893 22.293H87.8594ZM92.8194 22.4232C92.8194 22.5419 92.8126 22.6675 92.7989 22.7999H89.7987C89.8215 23.1698 89.9471 23.4598 90.1754 23.6698C90.4083 23.8753 90.6891 23.9781 91.0179 23.9781C91.2874 23.9781 91.5111 23.9164 91.6892 23.7931C91.8719 23.6653 91.9997 23.4963 92.0728 23.2862H92.7441C92.6436 23.647 92.4427 23.9415 92.1413 24.1699C91.8399 24.3936 91.4654 24.5055 91.0179 24.5055C90.6617 24.5055 90.3421 24.4256 90.059 24.2658C89.7804 24.1059 89.5612 23.8799 89.4014 23.5876C89.2415 23.2908 89.1616 22.9483 89.1616 22.5601C89.1616 22.172 89.2393 21.8318 89.3945 21.5395C89.5498 21.2473 89.7667 21.0235 90.0453 20.8682C90.3284 20.7084 90.6526 20.6285 91.0179 20.6285C91.3741 20.6285 91.6892 20.7061 91.9632 20.8614C92.2372 21.0167 92.4473 21.2313 92.5934 21.5053C92.7441 21.7747 92.8194 22.0807 92.8194 22.4232ZM92.1755 22.293C92.1755 22.0555 92.123 21.8523 92.018 21.6834C91.913 21.5098 91.7691 21.3797 91.5865 21.2929C91.4084 21.2016 91.2097 21.1559 90.9905 21.1559C90.6754 21.1559 90.406 21.2564 90.1822 21.4573C89.9631 21.6583 89.8375 21.9368 89.8055 22.293H92.1755ZM95.8067 24.4438L94.334 22.7862V24.4438H93.7107V19.375H94.334V22.3547L95.7793 20.6901H96.6493L94.882 22.5601L96.6561 24.4438H95.8067ZM97.9278 19.375V24.4438H97.3045V19.375H97.9278ZM102.292 20.6901L100.031 26.2111H99.3874L100.127 24.4027L98.6134 20.6901H99.3052L100.483 23.7315L101.648 20.6901H102.292Z" fill="#828282"/>
<path d="M125.727 19.7038V24.4438H125.103V20.9093L123.528 24.4438H123.089L121.507 20.9025V24.4438H120.884V19.7038H121.555L123.309 23.6219L125.062 19.7038H125.727ZM128.489 24.5055C128.138 24.5055 127.818 24.4256 127.53 24.2658C127.247 24.1059 127.023 23.8799 126.859 23.5876C126.699 23.2908 126.619 22.9483 126.619 22.5601C126.619 22.1766 126.701 21.8386 126.866 21.5464C127.035 21.2496 127.263 21.0235 127.551 20.8682C127.839 20.7084 128.16 20.6285 128.517 20.6285C128.873 20.6285 129.195 20.7084 129.483 20.8682C129.77 21.0235 129.996 21.2473 130.161 21.5395C130.33 21.8318 130.414 22.172 130.414 22.5601C130.414 22.9483 130.327 23.2908 130.154 23.5876C129.985 23.8799 129.754 24.1059 129.462 24.2658C129.17 24.4256 128.845 24.5055 128.489 24.5055ZM128.489 23.9575C128.713 23.9575 128.923 23.905 129.119 23.8C129.316 23.6949 129.473 23.5374 129.592 23.3273C129.715 23.1173 129.777 22.8615 129.777 22.5601C129.777 22.2588 129.718 22.003 129.599 21.793C129.48 21.5829 129.325 21.4276 129.133 21.3272C128.941 21.2222 128.734 21.1696 128.51 21.1696C128.282 21.1696 128.071 21.2222 127.88 21.3272C127.692 21.4276 127.542 21.5829 127.428 21.793C127.313 22.003 127.256 22.2588 127.256 22.5601C127.256 22.8661 127.311 23.1241 127.421 23.3342C127.535 23.5442 127.686 23.7018 127.873 23.8068C128.06 23.9073 128.266 23.9575 128.489 23.9575ZM133.131 20.6217C133.588 20.6217 133.958 20.7609 134.241 21.0395C134.524 21.3135 134.665 21.7108 134.665 22.2314V24.4438H134.049V22.3204C134.049 21.9459 133.955 21.6605 133.768 21.4642C133.581 21.2632 133.325 21.1628 133.001 21.1628C132.672 21.1628 132.41 21.2655 132.213 21.471C132.021 21.6765 131.925 21.9756 131.925 22.3684V24.4438H131.302V20.6901H131.925V21.2244C132.049 21.0326 132.215 20.8842 132.426 20.7792C132.64 20.6742 132.875 20.6217 133.131 20.6217ZM136.512 21.2039V23.4164C136.512 23.599 136.551 23.7292 136.629 23.8068C136.707 23.8799 136.841 23.9164 137.033 23.9164H137.492V24.4438H136.93C136.583 24.4438 136.323 24.3639 136.149 24.2041C135.976 24.0443 135.889 23.7817 135.889 23.4164V21.2039H135.403V20.6901H135.889V19.7449H136.512V20.6901H137.492V21.2039H136.512ZM138.939 19.375V24.4438H138.316V19.375H138.939ZM143.303 20.6901L141.043 26.2111H140.399L141.138 24.4027L139.625 20.6901H140.317L141.495 23.7315L142.659 20.6901H143.303Z" fill="#828282"/>
<path d="M164.818 19.6695L163.263 22.6423V24.4438H162.64V22.6423L161.078 19.6695H161.77L162.948 22.0875L164.126 19.6695H164.818ZM168.969 22.4232C168.969 22.5419 168.962 22.6675 168.949 22.7999H165.948C165.971 23.1698 166.097 23.4598 166.325 23.6698C166.558 23.8753 166.839 23.9781 167.168 23.9781C167.437 23.9781 167.661 23.9164 167.839 23.7931C168.022 23.6653 168.149 23.4963 168.223 23.2862H168.894C168.793 23.647 168.592 23.9415 168.291 24.1699C167.99 24.3936 167.615 24.5055 167.168 24.5055C166.811 24.5055 166.492 24.4256 166.209 24.2658C165.93 24.1059 165.711 23.8799 165.551 23.5876C165.391 23.2908 165.311 22.9483 165.311 22.5601C165.311 22.172 165.389 21.8318 165.544 21.5395C165.7 21.2473 165.916 21.0235 166.195 20.8682C166.478 20.7084 166.802 20.6285 167.168 20.6285C167.524 20.6285 167.839 20.7061 168.113 20.8614C168.387 21.0167 168.597 21.2313 168.743 21.5053C168.894 21.7747 168.969 22.0807 168.969 22.4232ZM168.325 22.293C168.325 22.0555 168.273 21.8523 168.168 21.6834C168.063 21.5098 167.919 21.3797 167.736 21.2929C167.558 21.2016 167.359 21.1559 167.14 21.1559C166.825 21.1559 166.556 21.2564 166.332 21.4573C166.113 21.6583 165.987 21.9368 165.955 22.293H168.325ZM169.628 22.5533C169.628 22.1697 169.705 21.8341 169.86 21.5464C170.016 21.2541 170.228 21.0281 170.497 20.8682C170.771 20.7084 171.075 20.6285 171.408 20.6285C171.737 20.6285 172.023 20.6993 172.265 20.8408C172.507 20.9824 172.687 21.1605 172.806 21.3751V20.6901H173.436V24.4438H172.806V23.7452C172.683 23.9644 172.498 24.147 172.251 24.2932C172.009 24.4347 171.726 24.5055 171.402 24.5055C171.068 24.5055 170.767 24.4233 170.497 24.2589C170.228 24.0945 170.016 23.8639 169.86 23.5671C169.705 23.2702 169.628 22.9323 169.628 22.5533ZM172.806 22.5601C172.806 22.277 172.749 22.0304 172.635 21.8204C172.52 21.6103 172.365 21.4505 172.169 21.3409C171.977 21.2267 171.765 21.1696 171.532 21.1696C171.299 21.1696 171.087 21.2244 170.895 21.334C170.703 21.4436 170.55 21.6035 170.436 21.8135C170.322 22.0236 170.265 22.2702 170.265 22.5533C170.265 22.841 170.322 23.0922 170.436 23.3068C170.55 23.5168 170.703 23.679 170.895 23.7931C171.087 23.9027 171.299 23.9575 171.532 23.9575C171.765 23.9575 171.977 23.9027 172.169 23.7931C172.365 23.679 172.52 23.5168 172.635 23.3068C172.749 23.0922 172.806 22.8433 172.806 22.5601ZM175.181 21.2998C175.291 21.0852 175.446 20.9185 175.647 20.7997C175.853 20.681 176.101 20.6217 176.394 20.6217V21.2655H176.229C175.531 21.2655 175.181 21.6446 175.181 22.4026V24.4438H174.558V20.6901H175.181V21.2998ZM177.805 19.375V24.4438H177.182V19.375H177.805ZM182.169 20.6901L179.909 26.2111H179.265L180.004 24.4027L178.491 20.6901H179.182L180.361 23.7315L181.525 20.6901H182.169Z" fill="#828282"/>
</g>
<defs>
<clipPath id="clip0_1_627">
<rect x="27.5166" y="13.3108" width="159.389" height="18.2662" rx="9.13309" fill="white"/>
</clipPath>
</defs>
</svg>
