<svg width="1439" height="220" viewBox="0 0 1439 220" fill="none" xmlns="http://www.w3.org/2000/svg">
<rect x="-1" width="1440" height="220" fill="#5C4EAE"/>
<mask id="mask0_1_584" style="mask-type:alpha" maskUnits="userSpaceOnUse" x="-1" y="0" width="1440" height="220">
<rect x="-1" width="1440" height="220" fill="#201F1F"/>
</mask>
<g mask="url(#mask0_1_584)">
<path opacity="0.2" d="M1561.55 -80.6616C1538.07 -78.4746 1512.57 -78.1317 1489.69 -73.0173C1467.3 -68.0127 1443.73 -58.9335 1424.03 -49.3444C1387.74 -31.6736 1369.15 -6.93549 1352.28 22.5782C1324.45 71.2844 1314.37 121.801 1313.94 174.725C1313.65 209.762 1315 244.441 1318.66 279.363C1319.78 290.025 1319.22 302.213 1327.07 311.42" stroke="#A596FF" stroke-width="4.44874" stroke-linecap="round"/>
<path opacity="0.2" d="M1609 -55.5095C1584.82 -53.2565 1558.56 -52.9032 1534.99 -47.6344C1511.94 -42.4788 1487.66 -33.1255 1467.37 -23.2469C1429.99 -5.04264 1410.84 20.4423 1393.47 50.847C1364.8 101.024 1354.43 153.066 1353.98 207.587C1353.68 243.681 1355.07 279.408 1358.85 315.383C1360 326.367 1359.42 338.923 1367.5 348.408" stroke="#A596FF" stroke-width="4.44874" stroke-linecap="round"/>
<path opacity="0.2" d="M368.68 576.567C374.051 545.173 381.885 515.645 379.878 481.794C378.444 457.617 372.443 433.823 360.905 411.119C339.393 368.788 311.272 328.433 277.84 296.279C243.679 263.422 210.142 227.671 171.566 202.439C135.7 178.98 97.446 159.599 62.4785 134.105C3.88974 91.3899 -37.5778 23.2272 -72.7741 -42.1925C-91.3944 -76.8021 -109.862 -111.647 -127.689 -146.668C-138.875 -168.644 -148.273 -192.21 -162.028 -212.632" stroke="#A596FF" stroke-width="4.01667" stroke-linecap="round"/>
<path opacity="0.2" d="M412.339 565.315C418.134 531.398 426.589 499.497 424.414 462.925C422.861 436.804 416.374 411.096 403.907 386.564C380.662 340.825 350.279 297.22 314.163 262.473C277.257 226.968 241.026 188.335 199.354 161.067C160.61 135.715 119.287 114.767 81.513 87.2162C18.2214 41.0547 -26.5828 -32.5967 -64.6127 -103.283C-84.732 -140.679 -104.687 -178.33 -123.949 -216.169C-136.036 -239.915 -146.191 -265.377 -161.053 -287.444" stroke="#A596FF" stroke-width="4.01667" stroke-linecap="round"/>
</g>
</svg>
