<svg width="535" height="458" viewBox="0 0 535 458" fill="none" xmlns="http://www.w3.org/2000/svg">
<rect x="1.49428" y="0.785294" width="532.429" height="456.236" rx="24.3441" fill="white" stroke="#EDF2F7" stroke-width="1.57059"/>
<rect x="321.109" y="36.9947" width="175.906" height="52.4088" rx="12.5647" fill="#FAFAFA"/>
<path d="M344.933 70.1991V58.4856H340.419V56.6292H351.416V58.4856H346.903V70.1991H344.933ZM360.696 70.1991V65.1952C360.696 64.7994 360.661 64.3942 360.592 63.9796C360.529 63.5586 360.404 63.1691 360.215 62.811C360.033 62.453 359.772 62.164 359.433 61.9441C359.1 61.7242 358.663 61.6143 358.123 61.6143C357.771 61.6143 357.438 61.6739 357.124 61.7933C356.81 61.9064 356.534 62.0917 356.295 62.3493C356.063 62.6069 355.877 62.9461 355.739 63.367C355.607 63.788 355.541 64.3 355.541 64.9031L354.316 64.4413C354.316 63.5178 354.489 62.7042 354.834 62.0006C355.18 61.2907 355.676 60.7379 356.323 60.3421C356.97 59.9463 357.752 59.7484 358.67 59.7484C359.373 59.7484 359.964 59.8615 360.441 60.0876C360.919 60.3138 361.305 60.6122 361.6 60.9829C361.902 61.3473 362.131 61.7462 362.288 62.1797C362.445 62.6132 362.552 63.0372 362.609 63.4518C362.665 63.8665 362.694 64.2309 362.694 64.545V70.1991H360.696ZM353.543 70.1991V56.6292H355.305V63.9513H355.541V70.1991H353.543ZM365.965 58.3537V56.4407H367.934V58.3537H365.965ZM365.965 70.1991V60.0217H367.934V70.1991H365.965ZM375.284 70.4724C374.047 70.4724 373.038 70.1991 372.259 69.6525C371.48 69.106 371.003 68.3364 370.827 67.3438L372.844 67.0328C372.969 67.5605 373.258 67.9783 373.711 68.2861C374.169 68.5877 374.738 68.7384 375.416 68.7384C376.032 68.7384 376.512 68.6128 376.858 68.3615C377.21 68.1102 377.386 67.7647 377.386 67.3249C377.386 67.0673 377.323 66.86 377.197 66.703C377.078 66.5396 376.823 66.3857 376.434 66.2412C376.044 66.0967 375.451 65.9177 374.653 65.7041C373.78 65.4779 373.085 65.236 372.57 64.9785C372.061 64.7146 371.697 64.4099 371.477 64.0644C371.264 63.7126 371.157 63.2885 371.157 62.7922C371.157 62.1765 371.32 61.6394 371.647 61.1808C371.973 60.7222 372.432 60.3672 373.023 60.1159C373.619 59.8646 374.317 59.739 375.115 59.739C375.894 59.739 376.588 59.8615 377.197 60.1065C377.807 60.3515 378.3 60.7002 378.677 61.1525C379.054 61.5986 379.28 62.1231 379.355 62.7262L377.339 63.0938C377.27 62.6037 377.04 62.2174 376.651 61.9347C376.261 61.652 375.755 61.498 375.134 61.4729C374.537 61.4478 374.053 61.5483 373.682 61.7745C373.312 61.9943 373.126 62.299 373.126 62.6885C373.126 62.9147 373.195 63.1063 373.334 63.2634C373.478 63.4204 373.755 63.5712 374.163 63.7157C374.571 63.8602 375.174 64.033 375.972 64.234C376.827 64.4539 377.505 64.6989 378.008 64.969C378.51 65.2329 378.868 65.5502 379.082 65.9208C379.302 66.2852 379.412 66.7281 379.412 67.2495C379.412 68.2547 379.044 69.0431 378.309 69.6148C377.58 70.1865 376.572 70.4724 375.284 70.4724ZM398.721 70.1991L398.73 63.8571C398.73 63.122 398.541 62.5503 398.165 62.142C397.788 61.7273 397.291 61.52 396.676 61.52C396.299 61.52 395.953 61.608 395.639 61.7839C395.331 61.9535 395.08 62.2111 394.885 62.5566C394.697 62.8959 394.602 63.3231 394.602 63.8382L393.651 63.3576C393.638 62.6414 393.789 62.0132 394.103 61.4729C394.423 60.9326 394.857 60.5148 395.403 60.2196C395.95 59.918 396.563 59.7672 397.241 59.7672C398.34 59.7672 399.192 60.0971 399.795 60.7567C400.398 61.4164 400.699 62.2928 400.699 63.3859L400.69 70.1991H398.721ZM386.517 70.1991V60.0217H388.27V62.9618H388.496V70.1991H386.517ZM392.623 70.1991L392.633 63.8948C392.633 63.1534 392.444 62.5723 392.068 62.1514C391.697 61.7305 391.197 61.52 390.569 61.52C389.947 61.52 389.445 61.7336 389.061 62.1608C388.684 62.588 388.496 63.1472 388.496 63.8382L387.554 63.2351C387.554 62.5692 387.714 61.9755 388.034 61.4541C388.355 60.9326 388.788 60.5211 389.335 60.2196C389.881 59.918 390.5 59.7672 391.191 59.7672C391.914 59.7672 392.529 59.9212 393.038 60.229C393.547 60.5306 393.933 60.9546 394.197 61.5012C394.467 62.0477 394.602 62.6823 394.602 63.4047L394.593 70.1991H392.623ZM408.066 70.4818C407.048 70.4818 406.165 70.2525 405.418 69.7939C404.67 69.3353 404.092 68.7039 403.684 67.8998C403.282 67.0893 403.08 66.1564 403.08 65.101C403.08 64.0392 403.288 63.1063 403.702 62.3022C404.117 61.4918 404.698 60.8635 405.446 60.4175C406.193 59.9651 407.067 59.739 408.066 59.739C409.083 59.739 409.966 59.9683 410.714 60.4269C411.461 60.8855 412.039 61.5169 412.447 62.321C412.856 63.1252 413.06 64.0518 413.06 65.101C413.06 66.1627 412.853 67.0988 412.438 67.9092C412.03 68.7133 411.452 69.3447 410.704 69.8033C409.957 70.2556 409.077 70.4818 408.066 70.4818ZM408.066 68.6254C409.039 68.6254 409.765 68.2987 410.242 67.6453C410.726 66.9857 410.968 66.1376 410.968 65.101C410.968 64.0392 410.723 63.1911 410.233 62.5566C409.749 61.9158 409.027 61.5954 408.066 61.5954C407.406 61.5954 406.862 61.7462 406.435 62.0477C406.008 62.343 405.691 62.7545 405.483 63.2822C405.276 63.8037 405.172 64.4099 405.172 65.101C405.172 66.169 405.418 67.0234 405.908 67.6642C406.398 68.305 407.117 68.6254 408.066 68.6254ZM422.902 70.1991V65.1952C422.902 64.7994 422.868 64.3942 422.798 63.9796C422.736 63.5586 422.61 63.1691 422.421 62.811C422.239 62.453 421.979 62.164 421.639 61.9441C421.306 61.7242 420.87 61.6143 420.329 61.6143C419.978 61.6143 419.645 61.6739 419.331 61.7933C419.016 61.9064 418.74 62.0917 418.501 62.3493C418.269 62.6069 418.084 62.9461 417.945 63.367C417.813 63.788 417.747 64.3 417.747 64.9031L416.522 64.4413C416.522 63.5178 416.695 62.7042 417.041 62.0006C417.386 61.2907 417.882 60.7379 418.53 60.3421C419.177 59.9463 419.959 59.7484 420.876 59.7484C421.58 59.7484 422.17 59.8615 422.648 60.0876C423.125 60.3138 423.511 60.6122 423.807 60.9829C424.108 61.3473 424.338 61.7462 424.495 62.1797C424.652 62.6132 424.759 63.0372 424.815 63.4518C424.872 63.8665 424.9 64.2309 424.9 64.545V70.1991H422.902ZM415.75 70.1991V60.0217H417.512V62.9618H417.747V70.1991H415.75ZM433.806 70.1991C433.166 70.3247 432.537 70.3781 431.922 70.3593C431.306 70.3404 430.756 70.2211 430.273 70.0012C429.789 69.7813 429.424 69.4358 429.179 68.9646C428.96 68.5437 428.84 68.1165 428.821 67.683C428.809 67.2432 428.802 66.7469 428.802 66.1941V57.1946H430.781V66.0999C430.781 66.5082 430.785 66.8632 430.791 67.1647C430.803 67.4663 430.869 67.7207 430.989 67.928C431.215 68.3175 431.573 68.5406 432.063 68.5971C432.559 68.6474 433.14 68.6254 433.806 68.5311V70.1991ZM426.852 61.6048V60.0217H433.806V61.6048H426.852ZM443.723 70.1991V65.1952C443.723 64.7994 443.689 64.3942 443.62 63.9796C443.557 63.5586 443.431 63.1691 443.243 62.811C443.061 62.453 442.8 62.164 442.461 61.9441C442.128 61.7242 441.691 61.6143 441.151 61.6143C440.799 61.6143 440.466 61.6739 440.152 61.7933C439.838 61.9064 439.561 62.0917 439.323 62.3493C439.09 62.6069 438.905 62.9461 438.767 63.367C438.635 63.788 438.569 64.3 438.569 64.9031L437.344 64.4413C437.344 63.5178 437.516 62.7042 437.862 62.0006C438.208 61.2907 438.704 60.7379 439.351 60.3421C439.998 59.9463 440.78 59.7484 441.697 59.7484C442.401 59.7484 442.992 59.8615 443.469 60.0876C443.946 60.3138 444.333 60.6122 444.628 60.9829C444.93 61.3473 445.159 61.7462 445.316 62.1797C445.473 62.6132 445.58 63.0372 445.636 63.4518C445.693 63.8665 445.721 64.2309 445.721 64.545V70.1991H443.723ZM436.571 70.1991V56.6292H438.333V63.9513H438.569V70.1991H436.571Z" fill="#1A202C"/>
<path d="M459.421 60.0579L465.703 66.3403L471.986 60.0579" stroke="#1A202C" stroke-width="2.35588" stroke-linecap="round" stroke-linejoin="round"/>
<path d="M43.5239 73.702V53.3471H52.1181C52.316 53.3471 52.5799 53.3565 52.9097 53.3754C53.2489 53.3848 53.5505 53.4131 53.8144 53.4602C55.03 53.6487 56.0242 54.0492 56.7969 54.6617C57.5791 55.2742 58.1539 56.047 58.5214 56.9799C58.8889 57.9034 59.0727 58.9353 59.0727 60.0755C59.0727 61.2158 58.8842 62.2524 58.5073 63.1853C58.1398 64.1088 57.5649 64.8768 56.7828 65.4893C56.01 66.1019 55.0206 66.5024 53.8144 66.6908C53.5505 66.7285 53.2489 66.7568 52.9097 66.7757C52.5705 66.7945 52.3066 66.8039 52.1181 66.8039H47.3687V73.702H43.5239ZM47.3687 63.2136H51.9485C52.1464 63.2136 52.3631 63.2041 52.5987 63.1853C52.8343 63.1664 53.0511 63.1287 53.2489 63.0722C53.7672 62.9309 54.1677 62.6953 54.4504 62.3654C54.7332 62.0262 54.9263 61.654 55.03 61.2488C55.1431 60.8341 55.1996 60.443 55.1996 60.0755C55.1996 59.708 55.1431 59.3216 55.03 58.9164C54.9263 58.5018 54.7332 58.1296 54.4504 57.7997C54.1677 57.4605 53.7672 57.2202 53.2489 57.0788C53.0511 57.0223 52.8343 56.9846 52.5987 56.9658C52.3631 56.9469 52.1464 56.9375 51.9485 56.9375H47.3687V63.2136ZM67.9073 74.1543C66.7105 74.1543 65.7352 73.9517 64.9813 73.5465C64.2274 73.1413 63.6384 72.6277 63.2144 72.0057C62.7997 71.3838 62.5029 70.7383 62.3239 70.0692C62.1448 69.3907 62.0364 68.7734 61.9987 68.2175C61.961 67.6615 61.9422 67.2563 61.9422 67.0018V58.4358H65.8435V65.6448C65.8435 65.9935 65.8624 66.4411 65.9001 66.9877C65.9378 67.5248 66.0556 68.0667 66.2535 68.6132C66.4514 69.1598 66.7718 69.6168 67.2147 69.9844C67.667 70.3519 68.3031 70.5356 69.1229 70.5356C69.4528 70.5356 69.8061 70.4838 70.1831 70.3802C70.56 70.2765 70.9134 70.0786 71.2432 69.7865C71.573 69.4849 71.8416 69.0467 72.0489 68.4719C72.2657 67.8876 72.374 67.1243 72.374 66.182L74.5792 67.228C74.5792 68.4342 74.3341 69.565 73.8441 70.6205C73.3541 71.6759 72.6143 72.5287 71.6249 73.1789C70.6448 73.8292 69.4056 74.1543 67.9073 74.1543ZM72.8546 73.702V68.6415H72.374V58.4358H76.2471V73.702H72.8546ZM80.5118 73.702V58.4358H83.9043V62.1675L83.5368 61.6869C83.7347 61.1592 83.9985 60.6786 84.3284 60.2451C84.6582 59.8117 85.0634 59.4536 85.544 59.1709C85.9115 58.9447 86.312 58.7704 86.7455 58.6479C87.179 58.5159 87.6266 58.4358 88.0883 58.4076C88.5501 58.3699 89.0119 58.3793 89.4736 58.4358V62.0262C89.0495 61.8943 88.5548 61.8519 87.9894 61.899C87.4334 61.9367 86.9293 62.0639 86.4769 62.2806C86.0246 62.4879 85.6429 62.7659 85.332 63.1146C85.021 63.4539 84.7854 63.8591 84.6252 64.3302C84.465 64.792 84.3849 65.315 84.3849 65.8993V73.702H80.5118ZM98.9288 74.126C97.3457 74.126 95.9887 73.7726 94.8579 73.0659C93.7271 72.3591 92.8601 71.3979 92.257 70.1823C91.6539 68.9666 91.3523 67.5955 91.3523 66.0689C91.3523 64.5234 91.6633 63.1429 92.2853 61.9272C92.9166 60.7116 93.8024 59.7551 94.9427 59.0578C96.0829 58.3604 97.4305 58.0118 98.9854 58.0118C100.785 58.0118 102.293 58.4688 103.509 59.3829C104.734 60.2876 105.516 61.5267 105.855 63.1005L102.01 64.1182C101.784 63.3266 101.388 62.7094 100.823 62.2665C100.267 61.8236 99.6356 61.6021 98.9288 61.6021C98.1184 61.6021 97.4541 61.8 96.9358 62.1958C96.4175 62.5822 96.0358 63.1146 95.7908 63.7931C95.5458 64.4622 95.4233 65.2208 95.4233 66.0689C95.4233 67.3976 95.7154 68.4766 96.2997 69.3059C96.8934 70.1257 97.7697 70.5356 98.9288 70.5356C99.7958 70.5356 100.455 70.3378 100.908 69.942C101.36 69.5462 101.699 68.9808 101.926 68.2457L105.855 69.0656C105.422 70.6864 104.602 71.935 103.396 72.8114C102.189 73.6878 100.7 74.126 98.9288 74.126ZM119.4 73.702V66.4929C119.4 66.1443 119.381 65.7014 119.344 65.1642C119.306 64.6177 119.188 64.0711 118.99 63.5245C118.792 62.978 118.467 62.5209 118.015 62.1534C117.572 61.7859 116.941 61.6021 116.121 61.6021C115.791 61.6021 115.438 61.654 115.061 61.7576C114.684 61.8613 114.33 62.0639 114 62.3654C113.671 62.6576 113.397 63.0911 113.181 63.6659C112.973 64.2407 112.87 65.004 112.87 65.9558L110.664 64.9098C110.664 63.7036 110.91 62.5728 111.4 61.5173C111.89 60.4619 112.625 59.6091 113.605 58.9588C114.594 58.3086 115.838 57.9835 117.336 57.9835C118.533 57.9835 119.508 58.1861 120.262 58.5913C121.016 58.9965 121.601 59.5101 122.015 60.1321C122.439 60.754 122.741 61.4042 122.92 62.0827C123.099 62.7518 123.207 63.3643 123.245 63.9203C123.283 64.4763 123.301 64.8815 123.301 65.136V73.702H119.4ZM108.968 73.702V53.3471H112.389V63.8072H112.87V73.702H108.968ZM131.524 74.126C130.431 74.126 129.503 73.9187 128.739 73.5041C127.986 73.08 127.411 72.5193 127.015 71.822C126.629 71.1152 126.435 70.3378 126.435 69.4896C126.435 68.7829 126.544 68.1374 126.76 67.5531C126.977 66.9688 127.326 66.4553 127.806 66.0123C128.296 65.56 128.951 65.1831 129.771 64.8815C130.337 64.6742 131.01 64.4904 131.793 64.3302C132.575 64.17 133.461 64.0193 134.45 63.8779C135.44 63.7271 136.528 63.5622 137.715 63.3832L136.33 64.1465C136.33 63.2418 136.113 62.5775 135.68 62.1534C135.246 61.7294 134.521 61.5173 133.503 61.5173C132.938 61.5173 132.349 61.654 131.736 61.9272C131.124 62.2005 130.695 62.6858 130.45 63.3832L126.972 62.2806C127.359 61.0179 128.084 59.9907 129.149 59.1991C130.214 58.4076 131.665 58.0118 133.503 58.0118C134.851 58.0118 136.047 58.2191 137.093 58.6337C138.139 59.0484 138.931 59.7645 139.468 60.7823C139.77 61.3477 139.949 61.9131 140.005 62.4785C140.062 63.0439 140.09 63.6753 140.09 64.3727V73.702H136.726V70.5639L137.206 71.2141C136.462 72.2413 135.656 72.9858 134.789 73.4475C133.932 73.8998 132.843 74.126 131.524 74.126ZM132.344 71.1011C133.051 71.1011 133.644 70.9785 134.125 70.7335C134.615 70.4791 135.001 70.1917 135.284 69.8713C135.576 69.5509 135.774 69.2823 135.878 69.0656C136.076 68.6509 136.189 68.1703 136.217 67.6238C136.255 67.0678 136.274 66.606 136.274 66.2385L137.404 66.5212C136.264 66.7097 135.341 66.8699 134.634 67.0018C133.927 67.1243 133.357 67.2374 132.923 67.3411C132.49 67.4447 132.108 67.5578 131.778 67.6803C131.402 67.8311 131.095 67.996 130.86 68.175C130.634 68.3447 130.464 68.5331 130.351 68.7405C130.247 68.9478 130.195 69.1787 130.195 69.4331C130.195 69.7818 130.28 70.0833 130.45 70.3378C130.629 70.5828 130.879 70.7712 131.199 70.9032C131.519 71.0351 131.901 71.1011 132.344 71.1011ZM150.045 74.126C148.122 74.126 146.567 73.6925 145.38 72.8256C144.202 71.9492 143.486 70.7147 143.231 69.1221L147.161 68.5284C147.321 69.2446 147.675 69.8053 148.221 70.2105C148.777 70.6157 149.479 70.8183 150.327 70.8183C151.025 70.8183 151.562 70.6864 151.939 70.4226C152.316 70.1493 152.504 69.7723 152.504 69.2917C152.504 68.9902 152.429 68.7499 152.278 68.5708C152.127 68.3824 151.788 68.1986 151.26 68.0196C150.742 67.8405 149.932 67.6049 148.829 67.3128C147.585 66.9924 146.591 66.6343 145.846 66.2385C145.102 65.8427 144.565 65.3715 144.235 64.825C143.905 64.269 143.74 63.5999 143.74 62.8178C143.74 61.8377 143.99 60.9896 144.489 60.2734C144.989 59.5478 145.691 58.9918 146.596 58.6055C147.51 58.2097 148.584 58.0118 149.818 58.0118C151.015 58.0118 152.075 58.1955 152.999 58.563C153.922 58.9306 154.667 59.4536 155.232 60.1321C155.807 60.8106 156.161 61.6116 156.292 62.5351L152.363 63.2418C152.297 62.6764 152.052 62.2288 151.628 61.899C151.204 61.5692 150.629 61.376 149.903 61.3194C149.197 61.2723 148.626 61.3665 148.193 61.6021C147.769 61.8377 147.557 62.177 147.557 62.6199C147.557 62.8837 147.646 63.1052 147.825 63.2842C148.014 63.4633 148.396 63.647 148.97 63.8355C149.555 64.024 150.44 64.269 151.628 64.5705C152.787 64.8721 153.715 65.2255 154.412 65.6307C155.119 66.0265 155.633 66.5071 155.953 67.0725C156.274 67.6285 156.434 68.3023 156.434 69.0938C156.434 70.6581 155.868 71.8879 154.738 72.7832C153.607 73.6784 152.042 74.126 150.045 74.126ZM166.95 74.126C165.386 74.126 164.005 73.7915 162.808 73.1224C161.621 72.4439 160.688 71.5157 160.01 70.3378C159.341 69.1504 159.006 67.7934 159.006 66.2668C159.006 64.5988 159.336 63.1476 159.995 61.9131C160.655 60.6786 161.565 59.7221 162.724 59.0436C163.883 58.3557 165.216 58.0118 166.724 58.0118C168.326 58.0118 169.688 58.3887 170.809 59.1426C171.93 59.8965 172.76 60.9566 173.297 62.323C173.834 63.6894 174.022 65.2962 173.862 67.1432H170.06V65.7296C170.06 64.1748 169.81 63.0581 169.311 62.3796C168.821 61.6917 168.015 61.3477 166.894 61.3477C165.584 61.3477 164.618 61.7482 163.996 62.5492C163.383 63.3408 163.077 64.514 163.077 66.0689C163.077 67.4918 163.383 68.5944 163.996 69.3765C164.618 70.1493 165.527 70.5356 166.724 70.5356C167.478 70.5356 168.123 70.3707 168.66 70.0409C169.198 69.7111 169.607 69.2352 169.89 68.6132L173.735 69.7158C173.16 71.1105 172.251 72.1942 171.007 72.9669C169.772 73.7396 168.42 74.126 166.95 74.126ZM161.89 67.1432V64.2878H172.01V67.1432H161.89ZM183.333 74.126C181.411 74.126 179.856 73.6925 178.668 72.8256C177.491 71.9492 176.774 70.7147 176.52 69.1221L180.45 68.5284C180.61 69.2446 180.963 69.8053 181.51 70.2105C182.066 70.6157 182.768 70.8183 183.616 70.8183C184.313 70.8183 184.85 70.6864 185.227 70.4226C185.604 70.1493 185.793 69.7723 185.793 69.2917C185.793 68.9902 185.717 68.7499 185.567 68.5708C185.416 68.3824 185.076 68.1986 184.549 68.0196C184.03 67.8405 183.22 67.6049 182.117 67.3128C180.874 66.9924 179.879 66.6343 179.135 66.2385C178.39 65.8427 177.853 65.3715 177.524 64.825C177.194 64.269 177.029 63.5999 177.029 62.8178C177.029 61.8377 177.279 60.9896 177.778 60.2734C178.277 59.5478 178.979 58.9918 179.884 58.6055C180.798 58.2097 181.872 58.0118 183.107 58.0118C184.304 58.0118 185.364 58.1955 186.287 58.563C187.211 58.9306 187.955 59.4536 188.521 60.1321C189.096 60.8106 189.449 61.6116 189.581 62.5351L185.651 63.2418C185.585 62.6764 185.34 62.2288 184.916 61.899C184.492 61.5692 183.917 61.376 183.192 61.3194C182.485 61.2723 181.915 61.3665 181.481 61.6021C181.057 61.8377 180.845 62.177 180.845 62.6199C180.845 62.8837 180.935 63.1052 181.114 63.2842C181.302 63.4633 181.684 63.647 182.259 63.8355C182.843 64.024 183.729 64.269 184.916 64.5705C186.075 64.8721 187.004 65.2255 187.701 65.6307C188.408 66.0265 188.921 66.5071 189.242 67.0725C189.562 67.6285 189.722 68.3023 189.722 69.0938C189.722 70.6581 189.157 71.8879 188.026 72.7832C186.895 73.6784 185.331 74.126 183.333 74.126Z" fill="#1A202C"/>
<rect x="39.1876" y="127.183" width="457.041" height="130.993" rx="18.0618" stroke="#EDF2F7" stroke-width="1.57059"/>
<rect x="63.5317" y="153.968" width="50.2588" height="50.2588" rx="25.1294" fill="#F4F0FF"/>
<path d="M89.3519 168.384L89.3205 168.457L86.284 175.504H83.2999C82.5879 175.504 81.9073 175.651 81.2896 175.913L83.1219 171.536L83.1638 171.431L83.2371 171.264C83.258 171.201 83.279 171.138 83.3104 171.086C84.682 167.913 86.2317 167.191 89.3519 168.384Z" stroke="#936DFF" stroke-width="1.57059" stroke-linecap="round" stroke-linejoin="round"/>
<path d="M94.9956 175.714C94.5245 175.567 94.0219 175.504 93.5193 175.504H86.2841L89.3206 168.457L89.352 168.384C89.5091 168.437 89.6556 168.51 89.8127 168.573L92.1267 169.546C93.4146 170.08 94.3151 170.635 94.8595 171.305C94.9642 171.431 95.048 171.546 95.1213 171.682C95.2155 171.829 95.2888 171.976 95.3307 172.133C95.3726 172.227 95.404 172.321 95.4249 172.405C95.7076 173.284 95.5401 174.363 94.9956 175.714Z" stroke="#936DFF" stroke-width="1.57059" stroke-linecap="round" stroke-linejoin="round"/>
<path d="M98.6307 180.614V182.656C98.6307 182.865 98.6202 183.075 98.6098 183.284C98.4108 186.938 96.369 188.781 92.4949 188.781H84.3279C84.0766 188.781 83.8253 188.76 83.5845 188.729C80.2548 188.509 78.4748 186.729 78.2549 183.399C78.2235 183.158 78.2026 182.907 78.2026 182.656V180.614C78.2026 178.509 79.48 176.698 81.3019 175.913C81.9301 175.651 82.6002 175.504 83.3122 175.504H93.5315C94.0446 175.504 94.5472 175.578 95.0079 175.714C97.0915 176.353 98.6307 178.3 98.6307 180.614Z" stroke="#936DFF" stroke-width="1.57059" stroke-linecap="round" stroke-linejoin="round"/>
<path d="M83.122 171.536L81.2896 175.913C79.4677 176.698 78.1903 178.509 78.1903 180.614V177.546C78.1903 174.572 80.3054 172.091 83.122 171.536Z" stroke="#936DFF" stroke-width="1.57059" stroke-linecap="round" stroke-linejoin="round"/>
<path d="M98.6274 177.545V180.613C98.6274 178.31 97.0987 176.352 95.0046 175.723C95.549 174.362 95.7061 173.294 95.4443 172.404C95.4234 172.31 95.392 172.216 95.3501 172.132C97.2976 173.137 98.6274 175.2 98.6274 177.545Z" stroke="#936DFF" stroke-width="1.57059" stroke-linecap="round" stroke-linejoin="round"/>
<path d="M133.957 172.527V158.957H142.815V161.351H136.52V164.253H141.684V166.647H136.52V170.133H142.815V172.527H133.957ZM144.571 172.527L148.209 167.382L144.646 162.35H147.662L149.697 165.365L151.695 162.35H154.711L151.149 167.382L154.805 172.527H151.789L149.697 169.398L147.587 172.527H144.571ZM161.944 172.81C160.933 172.81 160.088 172.574 159.41 172.103C158.731 171.632 158.219 170.991 157.873 170.18C157.534 169.37 157.365 168.456 157.365 167.438C157.365 166.42 157.534 165.506 157.873 164.696C158.213 163.886 158.712 163.245 159.372 162.774C160.031 162.302 160.845 162.067 161.813 162.067C162.786 162.067 163.634 162.299 164.357 162.764C165.079 163.229 165.638 163.867 166.034 164.677C166.436 165.481 166.637 166.402 166.637 167.438C166.637 168.456 166.439 169.37 166.044 170.18C165.654 170.991 165.108 171.632 164.404 172.103C163.7 172.574 162.881 172.81 161.944 172.81ZM156.931 177.05V162.35H159.193V169.323H159.513V177.05H156.931ZM161.53 170.529C162.083 170.529 162.535 170.391 162.887 170.114C163.239 169.838 163.499 169.467 163.669 169.003C163.839 168.531 163.923 168.01 163.923 167.438C163.923 166.873 163.835 166.358 163.66 165.893C163.484 165.422 163.21 165.048 162.84 164.771C162.475 164.489 162.007 164.347 161.436 164.347C160.902 164.347 160.468 164.476 160.135 164.734C159.808 164.991 159.57 165.352 159.419 165.817C159.268 166.282 159.193 166.823 159.193 167.438C159.193 168.054 159.268 168.594 159.419 169.059C159.57 169.524 159.815 169.885 160.154 170.143C160.5 170.4 160.958 170.529 161.53 170.529ZM174.07 172.81C173.027 172.81 172.107 172.587 171.309 172.141C170.517 171.688 169.895 171.069 169.443 170.284C168.997 169.493 168.774 168.588 168.774 167.57C168.774 166.458 168.994 165.491 169.433 164.668C169.873 163.845 170.479 163.207 171.252 162.755C172.025 162.296 172.914 162.067 173.919 162.067C174.987 162.067 175.895 162.318 176.642 162.821C177.39 163.323 177.943 164.03 178.301 164.941C178.659 165.852 178.785 166.923 178.678 168.154H176.143V167.212C176.143 166.175 175.977 165.431 175.644 164.979C175.317 164.52 174.78 164.291 174.032 164.291C173.159 164.291 172.515 164.558 172.1 165.092C171.692 165.619 171.488 166.402 171.488 167.438C171.488 168.387 171.692 169.122 172.1 169.643C172.515 170.158 173.121 170.416 173.919 170.416C174.422 170.416 174.852 170.306 175.21 170.086C175.568 169.866 175.841 169.549 176.03 169.134L178.593 169.869C178.21 170.799 177.604 171.522 176.774 172.037C175.951 172.552 175.05 172.81 174.07 172.81ZM170.696 168.154V166.251H177.443V168.154H170.696ZM188.094 172.527V167.721C188.094 167.488 188.081 167.193 188.056 166.835C188.031 166.471 187.952 166.106 187.82 165.742C187.688 165.378 187.472 165.073 187.17 164.828C186.875 164.583 186.454 164.46 185.907 164.46C185.687 164.46 185.452 164.495 185.201 164.564C184.949 164.633 184.714 164.768 184.494 164.969C184.274 165.164 184.092 165.453 183.947 165.836C183.809 166.219 183.74 166.728 183.74 167.363L182.27 166.665C182.27 165.861 182.433 165.107 182.76 164.404C183.087 163.7 183.577 163.132 184.23 162.698C184.89 162.265 185.719 162.048 186.718 162.048C187.516 162.048 188.166 162.183 188.668 162.453C189.171 162.723 189.561 163.066 189.837 163.48C190.12 163.895 190.321 164.328 190.44 164.781C190.559 165.227 190.632 165.635 190.657 166.006C190.682 166.376 190.695 166.647 190.695 166.816V172.527H188.094ZM181.139 172.527V162.35H183.42V165.723H183.74V172.527H181.139ZM197.745 172.81C196.463 172.81 195.427 172.521 194.635 171.943C193.85 171.358 193.372 170.535 193.203 169.474L195.822 169.078C195.929 169.555 196.165 169.929 196.529 170.199C196.9 170.469 197.368 170.605 197.933 170.605C198.398 170.605 198.756 170.517 199.007 170.341C199.259 170.158 199.384 169.907 199.384 169.587C199.384 169.386 199.334 169.226 199.234 169.106C199.133 168.981 198.907 168.858 198.555 168.739C198.21 168.619 197.669 168.462 196.934 168.267C196.105 168.054 195.442 167.815 194.946 167.551C194.45 167.287 194.092 166.973 193.872 166.609C193.652 166.238 193.542 165.792 193.542 165.271C193.542 164.617 193.708 164.052 194.041 163.575C194.374 163.091 194.842 162.72 195.445 162.463C196.055 162.199 196.771 162.067 197.594 162.067C198.392 162.067 199.099 162.189 199.714 162.434C200.33 162.679 200.826 163.028 201.203 163.48C201.586 163.933 201.822 164.467 201.91 165.082L199.29 165.554C199.246 165.177 199.083 164.878 198.8 164.658C198.517 164.438 198.134 164.31 197.65 164.272C197.179 164.24 196.799 164.303 196.51 164.46C196.228 164.617 196.086 164.844 196.086 165.139C196.086 165.315 196.146 165.462 196.265 165.582C196.391 165.701 196.645 165.824 197.029 165.949C197.418 166.075 198.009 166.238 198.8 166.439C199.573 166.64 200.192 166.876 200.657 167.146C201.128 167.41 201.47 167.73 201.684 168.107C201.897 168.478 202.004 168.927 202.004 169.455C202.004 170.498 201.627 171.318 200.873 171.914C200.119 172.511 199.077 172.81 197.745 172.81ZM209.434 172.81C208.391 172.81 207.471 172.587 206.673 172.141C205.881 171.688 205.259 171.069 204.807 170.284C204.361 169.493 204.138 168.588 204.138 167.57C204.138 166.458 204.358 165.491 204.797 164.668C205.237 163.845 205.843 163.207 206.616 162.755C207.389 162.296 208.278 162.067 209.283 162.067C210.351 162.067 211.259 162.318 212.006 162.821C212.754 163.323 213.307 164.03 213.665 164.941C214.023 165.852 214.149 166.923 214.042 168.154H211.507V167.212C211.507 166.175 211.341 165.431 211.008 164.979C210.681 164.52 210.144 164.291 209.396 164.291C208.523 164.291 207.879 164.558 207.464 165.092C207.056 165.619 206.852 166.402 206.852 167.438C206.852 168.387 207.056 169.122 207.464 169.643C207.879 170.158 208.485 170.416 209.283 170.416C209.786 170.416 210.216 170.306 210.574 170.086C210.932 169.866 211.205 169.549 211.394 169.134L213.957 169.869C213.574 170.799 212.968 171.522 212.138 172.037C211.315 172.552 210.414 172.81 209.434 172.81ZM206.06 168.154V166.251H212.807V168.154H206.06Z" fill="#1A202C"/>
<path d="M133.894 200.668V189.36H135.292V200.668H133.894ZM144.315 200.668V196.42C144.315 196.017 144.279 195.629 144.205 195.257C144.137 194.886 144.014 194.553 143.836 194.26C143.663 193.962 143.428 193.726 143.129 193.553C142.836 193.381 142.465 193.294 142.014 193.294C141.664 193.294 141.344 193.354 141.056 193.475C140.774 193.59 140.53 193.768 140.326 194.009C140.122 194.25 139.962 194.553 139.847 194.92C139.737 195.281 139.682 195.708 139.682 196.2L138.763 195.917C138.763 195.095 138.91 194.391 139.203 193.805C139.501 193.213 139.918 192.76 140.452 192.446C140.991 192.127 141.624 191.967 142.352 191.967C142.902 191.967 143.37 192.053 143.758 192.226C144.145 192.399 144.467 192.629 144.724 192.917C144.98 193.2 145.182 193.519 145.328 193.875C145.475 194.226 145.577 194.585 145.634 194.951C145.697 195.312 145.729 195.655 145.729 195.98V200.668H144.315ZM138.268 200.668V192.187H139.525V194.456H139.682V200.668H138.268ZM151.895 200.904C151.036 200.904 150.306 200.713 149.704 200.33C149.107 199.943 148.652 199.412 148.338 198.736C148.024 198.061 147.861 197.291 147.851 196.428C147.861 195.543 148.026 194.765 148.345 194.095C148.67 193.42 149.133 192.894 149.735 192.517C150.338 192.14 151.063 191.951 151.911 191.951C152.806 191.951 153.576 192.171 154.219 192.611C154.869 193.051 155.303 193.653 155.523 194.417L154.141 194.833C153.963 194.341 153.672 193.959 153.269 193.687C152.871 193.415 152.413 193.278 151.895 193.278C151.314 193.278 150.835 193.415 150.458 193.687C150.081 193.954 149.801 194.326 149.618 194.802C149.434 195.273 149.34 195.815 149.335 196.428C149.345 197.37 149.563 198.132 149.987 198.713C150.416 199.289 151.052 199.577 151.895 199.577C152.45 199.577 152.911 199.451 153.277 199.2C153.644 198.943 153.921 198.574 154.11 198.092L155.523 198.461C155.23 199.252 154.772 199.857 154.149 200.275C153.526 200.694 152.775 200.904 151.895 200.904ZM157.754 200.668V192.187H159.003V194.237L158.798 193.97C158.898 193.708 159.026 193.467 159.183 193.247C159.346 193.027 159.526 192.847 159.725 192.705C159.945 192.527 160.194 192.391 160.471 192.297C160.749 192.203 161.031 192.148 161.319 192.132C161.607 192.111 161.877 192.129 162.128 192.187V193.498C161.835 193.42 161.513 193.399 161.162 193.436C160.811 193.472 160.487 193.6 160.188 193.82C159.916 194.014 159.704 194.25 159.552 194.527C159.406 194.805 159.304 195.106 159.246 195.43C159.189 195.75 159.16 196.077 159.16 196.412V200.668H157.754ZM167.763 200.904C166.931 200.904 166.203 200.72 165.58 200.354C164.962 199.982 164.481 199.467 164.135 198.807C163.79 198.142 163.617 197.367 163.617 196.482C163.617 195.556 163.787 194.755 164.127 194.079C164.467 193.399 164.941 192.875 165.549 192.509C166.161 192.137 166.878 191.951 167.7 191.951C168.554 191.951 169.279 192.148 169.876 192.54C170.478 192.933 170.928 193.493 171.226 194.221C171.53 194.949 171.661 195.815 171.619 196.82H170.205V196.318C170.19 195.276 169.978 194.498 169.569 193.985C169.161 193.467 168.554 193.208 167.747 193.208C166.884 193.208 166.227 193.485 165.776 194.04C165.326 194.595 165.101 195.391 165.101 196.428C165.101 197.427 165.326 198.202 165.776 198.752C166.227 199.302 166.868 199.577 167.7 199.577C168.26 199.577 168.747 199.448 169.161 199.192C169.575 198.935 169.899 198.566 170.135 198.084L171.478 198.548C171.148 199.296 170.65 199.878 169.985 200.291C169.326 200.7 168.585 200.904 167.763 200.904ZM164.63 196.82V195.697H170.896V196.82H164.63ZM176.253 200.904C175.62 200.904 175.088 200.789 174.659 200.558C174.235 200.323 173.913 200.014 173.693 199.632C173.478 199.249 173.371 198.831 173.371 198.375C173.371 197.93 173.455 197.545 173.622 197.221C173.795 196.891 174.036 196.619 174.345 196.404C174.654 196.184 175.023 196.011 175.452 195.886C175.855 195.776 176.305 195.681 176.803 195.603C177.305 195.519 177.813 195.443 178.326 195.375C178.839 195.307 179.318 195.242 179.763 195.179L179.261 195.469C179.276 194.716 179.125 194.158 178.805 193.797C178.491 193.436 177.947 193.255 177.172 193.255C176.659 193.255 176.208 193.373 175.821 193.608C175.439 193.839 175.169 194.216 175.012 194.739L173.685 194.339C173.889 193.595 174.285 193.011 174.871 192.587C175.457 192.163 176.229 191.951 177.187 191.951C177.957 191.951 178.617 192.09 179.166 192.368C179.721 192.64 180.119 193.053 180.36 193.608C180.48 193.87 180.556 194.155 180.588 194.464C180.619 194.768 180.635 195.087 180.635 195.422V200.668H179.394V198.634L179.685 198.823C179.365 199.508 178.918 200.027 178.342 200.378C177.771 200.728 177.075 200.904 176.253 200.904ZM176.465 199.734C176.968 199.734 177.402 199.645 177.769 199.467C178.14 199.283 178.439 199.045 178.664 198.752C178.889 198.454 179.036 198.129 179.104 197.778C179.182 197.516 179.224 197.226 179.229 196.907C179.24 196.582 179.245 196.333 179.245 196.161L179.732 196.373C179.276 196.435 178.829 196.496 178.389 196.553C177.949 196.611 177.533 196.674 177.14 196.742C176.748 196.804 176.394 196.88 176.08 196.969C175.85 197.043 175.633 197.137 175.428 197.252C175.229 197.367 175.067 197.516 174.942 197.7C174.821 197.878 174.761 198.1 174.761 198.367C174.761 198.598 174.819 198.817 174.934 199.027C175.054 199.236 175.237 199.406 175.483 199.537C175.735 199.668 176.062 199.734 176.465 199.734ZM186.509 200.896C185.499 200.896 184.669 200.676 184.02 200.236C183.376 199.791 182.98 199.171 182.834 198.375L184.263 198.147C184.378 198.608 184.643 198.974 185.056 199.247C185.47 199.514 185.983 199.647 186.595 199.647C187.176 199.647 187.632 199.527 187.962 199.286C188.292 199.045 188.456 198.718 188.456 198.304C188.456 198.064 188.401 197.87 188.292 197.723C188.182 197.571 187.954 197.43 187.608 197.299C187.268 197.168 186.752 197.011 186.061 196.828C185.313 196.629 184.724 196.422 184.294 196.208C183.865 195.993 183.559 195.744 183.376 195.462C183.192 195.179 183.101 194.836 183.101 194.433C183.101 193.936 183.237 193.501 183.509 193.129C183.781 192.752 184.161 192.462 184.648 192.258C185.14 192.053 185.711 191.951 186.36 191.951C187.004 191.951 187.58 192.053 188.087 192.258C188.595 192.462 189.004 192.752 189.312 193.129C189.627 193.501 189.812 193.936 189.87 194.433L188.441 194.692C188.373 194.237 188.153 193.878 187.781 193.616C187.415 193.354 186.941 193.216 186.36 193.2C185.81 193.179 185.362 193.276 185.017 193.491C184.677 193.705 184.506 193.996 184.506 194.362C184.506 194.566 184.569 194.742 184.695 194.888C184.826 195.035 185.064 195.174 185.41 195.305C185.76 195.435 186.268 195.585 186.933 195.752C187.682 195.941 188.271 196.147 188.7 196.373C189.134 196.592 189.443 196.854 189.627 197.158C189.81 197.456 189.901 197.825 189.901 198.265C189.901 199.082 189.6 199.726 188.998 200.197C188.396 200.663 187.566 200.896 186.509 200.896ZM195.937 200.904C195.104 200.904 194.377 200.72 193.754 200.354C193.136 199.982 192.654 199.467 192.309 198.807C191.963 198.142 191.79 197.367 191.79 196.482C191.79 195.556 191.961 194.755 192.301 194.079C192.641 193.399 193.115 192.875 193.722 192.509C194.335 192.137 195.052 191.951 195.874 191.951C196.727 191.951 197.452 192.148 198.049 192.54C198.651 192.933 199.101 193.493 199.4 194.221C199.704 194.949 199.834 195.815 199.793 196.82H198.379V196.318C198.363 195.276 198.151 194.498 197.743 193.985C197.335 193.467 196.727 193.208 195.921 193.208C195.057 193.208 194.4 193.485 193.95 194.04C193.5 194.595 193.275 195.391 193.275 196.428C193.275 197.427 193.5 198.202 193.95 198.752C194.4 199.302 195.042 199.577 195.874 199.577C196.434 199.577 196.921 199.448 197.335 199.192C197.748 198.935 198.073 198.566 198.308 198.084L199.651 198.548C199.321 199.296 198.824 199.878 198.159 200.291C197.499 200.7 196.759 200.904 195.937 200.904ZM192.803 196.82V195.697H199.07V196.82H192.803ZM205.499 200.904C204.708 200.904 204.03 200.707 203.465 200.315C202.899 199.917 202.462 199.38 202.153 198.705C201.85 198.03 201.698 197.268 201.698 196.42C201.698 195.572 201.85 194.81 202.153 194.134C202.462 193.459 202.899 192.928 203.465 192.54C204.03 192.148 204.706 191.951 205.491 191.951C206.292 191.951 206.965 192.145 207.509 192.532C208.054 192.92 208.465 193.451 208.742 194.127C209.025 194.802 209.166 195.566 209.166 196.42C209.166 197.263 209.025 198.024 208.742 198.705C208.465 199.38 208.054 199.917 207.509 200.315C206.965 200.707 206.295 200.904 205.499 200.904ZM205.672 199.624C206.242 199.624 206.711 199.488 207.077 199.215C207.444 198.938 207.713 198.558 207.886 198.077C208.064 197.59 208.153 197.037 208.153 196.42C208.153 195.791 208.064 195.239 207.886 194.763C207.713 194.281 207.446 193.907 207.085 193.64C206.724 193.367 206.266 193.231 205.711 193.231C205.135 193.231 204.659 193.373 204.282 193.655C203.91 193.938 203.632 194.32 203.449 194.802C203.271 195.284 203.182 195.823 203.182 196.42C203.182 197.022 203.274 197.566 203.457 198.053C203.64 198.535 203.915 198.917 204.282 199.2C204.653 199.482 205.117 199.624 205.672 199.624ZM208.153 200.668V194.425H207.996V189.36H209.402V200.668H208.153ZM216.003 200.668V189.36H220.408C221.083 189.36 221.659 189.499 222.136 189.776C222.617 190.054 222.984 190.42 223.235 190.875C223.492 191.326 223.62 191.813 223.62 192.336C223.62 192.949 223.463 193.485 223.149 193.946C222.835 194.407 222.411 194.723 221.877 194.896L221.861 194.511C222.589 194.705 223.154 195.061 223.557 195.579C223.96 196.098 224.162 196.715 224.162 197.433C224.162 198.092 224.026 198.663 223.753 199.145C223.486 199.626 223.099 200.001 222.591 200.268C222.089 200.535 221.492 200.668 220.801 200.668H216.003ZM217.416 199.333H220.534C220.953 199.333 221.327 199.257 221.657 199.105C221.987 198.948 222.246 198.728 222.434 198.446C222.628 198.163 222.725 197.823 222.725 197.425C222.725 197.043 222.638 196.7 222.466 196.396C222.298 196.092 222.06 195.852 221.751 195.674C221.447 195.49 221.094 195.399 220.691 195.399H217.416V199.333ZM217.416 194.079H220.392C220.727 194.079 221.029 194.009 221.296 193.867C221.568 193.721 221.782 193.517 221.939 193.255C222.102 192.993 222.183 192.687 222.183 192.336C222.183 191.849 222.018 191.451 221.688 191.142C221.358 190.834 220.926 190.679 220.392 190.679H217.416V194.079ZM227.533 204.438L229.174 199.977L229.198 201.296L225.491 192.187H226.96L229.865 199.514H229.363L232.088 192.187H233.509L228.892 204.438H227.533ZM241.178 200.668V190.907L239.05 192.195V190.632L241.178 189.36H242.599V200.668H241.178ZM250.032 200.904C249.299 200.904 248.645 200.739 248.069 200.409C247.498 200.074 247.045 199.621 246.71 199.05C246.38 198.475 246.216 197.82 246.216 197.087V192.941C246.216 192.208 246.38 191.553 246.71 190.978C247.045 190.402 247.498 189.949 248.069 189.619C248.645 189.289 249.299 189.124 250.032 189.124C250.765 189.124 251.419 189.289 251.995 189.619C252.571 189.949 253.024 190.402 253.354 190.978C253.684 191.553 253.849 192.208 253.849 192.941V197.087C253.849 197.82 253.684 198.475 253.354 199.05C253.024 199.621 252.571 200.074 251.995 200.409C251.419 200.739 250.765 200.904 250.032 200.904ZM250.032 199.561C250.477 199.561 250.88 199.454 251.241 199.239C251.603 199.024 251.891 198.736 252.105 198.375C252.32 198.009 252.427 197.605 252.427 197.166V192.854C252.427 192.409 252.32 192.006 252.105 191.645C251.891 191.284 251.603 190.996 251.241 190.781C250.88 190.567 250.477 190.459 250.032 190.459C249.592 190.459 249.189 190.567 248.823 190.781C248.462 190.996 248.174 191.284 247.959 191.645C247.744 192.006 247.637 192.409 247.637 192.854V197.166C247.637 197.605 247.744 198.009 247.959 198.375C248.174 198.736 248.462 199.024 248.823 199.239C249.189 199.454 249.592 199.561 250.032 199.561ZM257.932 200.668L256.989 199.726L267.371 189.36L268.313 190.302L257.932 200.668ZM265.958 200.904C265.439 200.904 264.965 200.778 264.536 200.527C264.112 200.27 263.772 199.93 263.515 199.506C263.259 199.077 263.13 198.6 263.13 198.077C263.13 197.564 263.261 197.092 263.523 196.663C263.785 196.234 264.13 195.891 264.56 195.634C264.989 195.378 265.455 195.25 265.958 195.25C266.476 195.25 266.95 195.378 267.379 195.634C267.808 195.886 268.148 196.226 268.4 196.655C268.656 197.079 268.785 197.553 268.785 198.077C268.785 198.6 268.656 199.077 268.4 199.506C268.148 199.93 267.808 200.27 267.379 200.527C266.95 200.778 266.476 200.904 265.958 200.904ZM265.958 199.671C266.245 199.671 266.51 199.597 266.751 199.451C266.997 199.304 267.19 199.111 267.332 198.87C267.478 198.629 267.552 198.365 267.552 198.077C267.552 197.789 267.478 197.524 267.332 197.283C267.19 197.037 266.997 196.844 266.751 196.702C266.51 196.556 266.245 196.482 265.958 196.482C265.67 196.482 265.405 196.556 265.164 196.702C264.924 196.844 264.73 197.037 264.583 197.283C264.437 197.524 264.363 197.789 264.363 198.077C264.363 198.365 264.437 198.629 264.583 198.87C264.73 199.111 264.924 199.304 265.164 199.451C265.405 199.597 265.67 199.671 265.958 199.671ZM259.345 194.778C258.827 194.778 258.353 194.653 257.924 194.401C257.495 194.145 257.152 193.805 256.895 193.381C256.644 192.951 256.518 192.475 256.518 191.951C256.518 191.438 256.649 190.967 256.911 190.538C257.173 190.109 257.518 189.766 257.948 189.509C258.377 189.253 258.843 189.124 259.345 189.124C259.864 189.124 260.335 189.253 260.759 189.509C261.188 189.76 261.531 190.101 261.788 190.53C262.044 190.954 262.172 191.428 262.172 191.951C262.172 192.475 262.044 192.951 261.788 193.381C261.531 193.805 261.188 194.145 260.759 194.401C260.335 194.653 259.864 194.778 259.345 194.778ZM259.345 193.545C259.633 193.545 259.898 193.472 260.138 193.326C260.385 193.179 260.578 192.985 260.72 192.744C260.866 192.504 260.939 192.239 260.939 191.951C260.939 191.663 260.866 191.399 260.72 191.158C260.578 190.912 260.385 190.718 260.138 190.577C259.898 190.43 259.633 190.357 259.345 190.357C259.057 190.357 258.793 190.43 258.552 190.577C258.311 190.718 258.118 190.912 257.971 191.158C257.824 191.399 257.751 191.663 257.751 191.951C257.751 192.239 257.824 192.504 257.971 192.744C258.118 192.985 258.311 193.179 258.552 193.326C258.793 193.472 259.057 193.545 259.345 193.545Z" fill="#A0AEC0"/>
<path d="M382.889 189.796V187.158H385.879V189.796H382.889ZM382.889 172.228V169.589H385.879V172.228H382.889ZM384.406 187.927C383.27 187.927 382.255 187.719 381.36 187.301C380.466 186.876 379.737 186.278 379.173 185.509C378.608 184.732 378.249 183.816 378.095 182.76L381.064 182.298C381.261 183.163 381.676 183.852 382.306 184.365C382.944 184.878 383.702 185.135 384.582 185.135C385.41 185.135 386.095 184.941 386.638 184.552C387.187 184.164 387.462 183.684 387.462 183.112C387.462 182.724 387.341 182.405 387.099 182.156C386.865 181.899 386.495 181.69 385.989 181.529L382.075 180.32C379.818 179.623 378.689 178.245 378.689 176.186C378.689 175.218 378.916 174.379 379.37 173.668C379.832 172.957 380.481 172.411 381.316 172.03C382.159 171.641 383.152 171.451 384.296 171.458C385.344 171.473 386.275 171.663 387.088 172.03C387.902 172.389 388.58 172.913 389.122 173.602C389.672 174.284 390.071 175.116 390.321 176.098L387.242 176.647C387.14 176.178 386.949 175.768 386.671 175.416C386.392 175.057 386.044 174.778 385.626 174.581C385.216 174.375 384.758 174.265 384.252 174.251C383.768 174.236 383.328 174.306 382.933 174.46C382.544 174.614 382.233 174.83 381.998 175.108C381.771 175.379 381.657 175.687 381.657 176.032C381.657 176.413 381.818 176.743 382.141 177.021C382.463 177.292 382.977 177.527 383.68 177.725L386.473 178.516C387.873 178.92 388.88 179.466 389.496 180.155C390.119 180.844 390.431 181.756 390.431 182.892C390.431 183.889 390.178 184.765 389.672 185.52C389.166 186.275 388.459 186.865 387.55 187.29C386.649 187.715 385.6 187.927 384.406 187.927ZM399.598 187.598V185.135H392.715V182.342L397.707 171.766H401.137L396.146 182.342H399.598V178.385H402.632V182.342H404.039V185.135H402.632V187.598H399.598ZM412.868 187.927C411.695 187.927 410.669 187.682 409.79 187.191C408.91 186.7 408.225 186.014 407.734 185.135C407.243 184.255 406.997 183.229 406.997 182.057V177.307C406.997 176.134 407.243 175.108 407.734 174.229C408.225 173.349 408.91 172.664 409.79 172.173C410.669 171.682 411.695 171.436 412.868 171.436C414.041 171.436 415.067 171.682 415.946 172.173C416.826 172.664 417.511 173.349 418.002 174.229C418.493 175.108 418.739 176.134 418.739 177.307V182.057C418.739 183.229 418.493 184.255 418.002 185.135C417.511 186.014 416.826 186.7 415.946 187.191C415.067 187.682 414.041 187.927 412.868 187.927ZM412.868 185.091C413.396 185.091 413.872 184.966 414.297 184.717C414.722 184.468 415.059 184.131 415.309 183.706C415.558 183.281 415.682 182.804 415.682 182.276V177.065C415.682 176.538 415.558 176.061 415.309 175.636C415.059 175.211 414.722 174.874 414.297 174.625C413.872 174.375 413.396 174.251 412.868 174.251C412.34 174.251 411.864 174.375 411.439 174.625C411.014 174.874 410.677 175.211 410.427 175.636C410.178 176.061 410.054 176.538 410.054 177.065V182.276C410.054 182.804 410.178 183.281 410.427 183.706C410.677 184.131 411.014 184.468 411.439 184.717C411.864 184.966 412.34 185.091 412.868 185.091ZM427.207 171.458C428.255 171.458 429.193 171.704 430.021 172.195C430.857 172.686 431.517 173.371 432 174.251C432.484 175.123 432.726 176.134 432.726 177.285V181.881C432.726 183.127 432.484 184.204 432 185.113C431.517 186.014 430.835 186.711 429.955 187.202C429.076 187.686 428.042 187.927 426.855 187.927C426.085 187.927 425.352 187.814 424.656 187.587C423.967 187.352 423.33 186.967 422.743 186.432L424.876 184.299C425.14 184.563 425.444 184.768 425.789 184.915C426.14 185.062 426.496 185.135 426.855 185.135C427.427 185.135 427.921 185.003 428.339 184.739C428.764 184.468 429.09 184.12 429.318 183.695C429.552 183.262 429.67 182.804 429.67 182.32V179.968L430.175 180.517C429.728 180.979 429.204 181.335 428.603 181.584C428.002 181.826 427.383 181.947 426.745 181.947C425.748 181.947 424.869 181.723 424.106 181.276C423.352 180.829 422.758 180.217 422.325 179.44C421.9 178.663 421.688 177.776 421.688 176.779C421.688 175.783 421.941 174.885 422.446 174.086C422.952 173.28 423.623 172.642 424.458 172.173C425.294 171.696 426.21 171.458 427.207 171.458ZM427.207 174.317C426.752 174.317 426.335 174.427 425.954 174.647C425.58 174.866 425.279 175.163 425.052 175.537C424.832 175.911 424.722 176.325 424.722 176.779C424.722 177.234 424.832 177.652 425.052 178.033C425.272 178.407 425.569 178.707 425.943 178.934C426.316 179.154 426.73 179.264 427.185 179.264C427.639 179.264 428.053 179.154 428.427 178.934C428.808 178.707 429.109 178.407 429.329 178.033C429.556 177.652 429.67 177.234 429.67 176.779C429.67 176.34 429.56 175.933 429.34 175.559C429.12 175.185 428.823 174.885 428.449 174.658C428.075 174.43 427.661 174.317 427.207 174.317ZM436.604 187.598V184.607H439.594V187.598H436.604ZM449.348 187.927C448.175 187.927 447.149 187.682 446.27 187.191C445.39 186.7 444.705 186.014 444.214 185.135C443.723 184.255 443.477 183.229 443.477 182.057V177.307C443.477 176.134 443.723 175.108 444.214 174.229C444.705 173.349 445.39 172.664 446.27 172.173C447.149 171.682 448.175 171.436 449.348 171.436C450.521 171.436 451.547 171.682 452.426 172.173C453.306 172.664 453.991 173.349 454.482 174.229C454.973 175.108 455.219 176.134 455.219 177.307V182.057C455.219 183.229 454.973 184.255 454.482 185.135C453.991 186.014 453.306 186.7 452.426 187.191C451.547 187.682 450.521 187.927 449.348 187.927ZM449.348 185.091C449.876 185.091 450.352 184.966 450.777 184.717C451.202 184.468 451.539 184.131 451.789 183.706C452.038 183.281 452.162 182.804 452.162 182.276V177.065C452.162 176.538 452.038 176.061 451.789 175.636C451.539 175.211 451.202 174.874 450.777 174.625C450.352 174.375 449.876 174.251 449.348 174.251C448.82 174.251 448.344 174.375 447.919 174.625C447.494 174.874 447.156 175.211 446.907 175.636C446.658 176.061 446.533 176.538 446.533 177.065V182.276C446.533 182.804 446.658 183.281 446.907 183.706C447.156 184.131 447.494 184.468 447.919 184.717C448.344 184.966 448.82 185.091 449.348 185.091ZM464.478 187.927C463.306 187.927 462.28 187.682 461.4 187.191C460.521 186.7 459.835 186.014 459.344 185.135C458.853 184.255 458.608 183.229 458.608 182.057V177.307C458.608 176.134 458.853 175.108 459.344 174.229C459.835 173.349 460.521 172.664 461.4 172.173C462.28 171.682 463.306 171.436 464.478 171.436C465.651 171.436 466.677 171.682 467.557 172.173C468.436 172.664 469.122 173.349 469.613 174.229C470.104 175.108 470.349 176.134 470.349 177.307V182.057C470.349 183.229 470.104 184.255 469.613 185.135C469.122 186.014 468.436 186.7 467.557 187.191C466.677 187.682 465.651 187.927 464.478 187.927ZM464.478 185.091C465.006 185.091 465.483 184.966 465.908 184.717C466.333 184.468 466.67 184.131 466.919 183.706C467.168 183.281 467.293 182.804 467.293 182.276V177.065C467.293 176.538 467.168 176.061 466.919 175.636C466.67 175.211 466.333 174.874 465.908 174.625C465.483 174.375 465.006 174.251 464.478 174.251C463.951 174.251 463.474 174.375 463.049 174.625C462.624 174.874 462.287 175.211 462.038 175.636C461.788 176.061 461.664 176.538 461.664 177.065V182.276C461.664 182.804 461.788 183.281 462.038 183.706C462.287 184.131 462.624 184.468 463.049 184.717C463.474 184.966 463.951 185.091 464.478 185.091Z" fill="#1A202C"/>
<rect opacity="0.2" x="63.5317" y="227.086" width="408.353" height="9.42353" rx="4.71176" fill="#6C5FBC"/>
<rect x="63.5317" y="227.086" width="296.841" height="9.42353" rx="4.71176" fill="#6C5FBC"/>
<rect x="39.1876" y="281.326" width="457.041" height="130.993" rx="18.0618" stroke="#EDF2F7" stroke-width="1.57059"/>
<rect x="63.5317" y="308.112" width="50.2588" height="50.2588" rx="25.1294" fill="#F2FDF6"/>
<path d="M93.8962 342.927H83.4256C80.2844 342.927 78.1903 341.356 78.1903 337.692V330.362C78.1903 326.698 80.2844 325.127 83.4256 325.127H93.8962C97.0374 325.127 99.1315 326.698 99.1315 330.362V337.692C99.1315 341.356 97.0374 342.927 93.8962 342.927Z" stroke="#22C55E" stroke-width="1.57059" stroke-miterlimit="10" stroke-linecap="round" stroke-linejoin="round"/>
<path d="M88.6609 337.168C90.3957 337.168 91.8021 335.762 91.8021 334.027C91.8021 332.292 90.3957 330.886 88.6609 330.886C86.9261 330.886 85.5197 332.292 85.5197 334.027C85.5197 335.762 86.9261 337.168 88.6609 337.168Z" stroke="#22C55E" stroke-width="1.57059" stroke-miterlimit="10" stroke-linecap="round" stroke-linejoin="round"/>
<path d="M81.855 331.409V336.645" stroke="#22C55E" stroke-width="1.57059" stroke-miterlimit="10" stroke-linecap="round" stroke-linejoin="round"/>
<path d="M95.4667 331.409V336.645" stroke="#22C55E" stroke-width="1.57059" stroke-miterlimit="10" stroke-linecap="round" stroke-linejoin="round"/>
<path d="M136.878 326.671L132.732 313.101H135.37L138.763 324.258L142.212 313.101H144.85L140.704 326.671H136.878ZM150.355 326.953C149.331 326.953 148.433 326.724 147.66 326.265C146.887 325.807 146.284 325.175 145.851 324.371C145.424 323.561 145.21 322.631 145.21 321.582C145.21 320.52 145.43 319.587 145.87 318.783C146.309 317.973 146.916 317.341 147.688 316.889C148.461 316.437 149.35 316.21 150.355 316.21C151.379 316.21 152.278 316.44 153.05 316.898C153.829 317.357 154.436 317.991 154.869 318.802C155.303 319.606 155.519 320.533 155.519 321.582C155.519 322.637 155.3 323.57 154.86 324.381C154.426 325.185 153.82 325.816 153.041 326.275C152.268 326.727 151.373 326.953 150.355 326.953ZM150.355 324.56C151.178 324.56 151.791 324.283 152.193 323.73C152.601 323.171 152.805 322.455 152.805 321.582C152.805 320.677 152.598 319.955 152.183 319.414C151.775 318.874 151.166 318.604 150.355 318.604C149.796 318.604 149.338 318.73 148.979 318.981C148.621 319.232 148.354 319.581 148.178 320.027C148.009 320.473 147.924 320.991 147.924 321.582C147.924 322.493 148.128 323.218 148.537 323.759C148.951 324.293 149.557 324.56 150.355 324.56ZM162.706 326.953C161.65 326.953 160.745 326.718 159.992 326.247C159.238 325.775 158.66 325.135 158.258 324.324C157.856 323.514 157.655 322.6 157.655 321.582C157.655 320.552 157.862 319.631 158.276 318.821C158.697 318.01 159.288 317.373 160.048 316.908C160.808 316.443 161.707 316.21 162.743 316.21C163.943 316.21 164.948 316.515 165.759 317.125C166.575 317.728 167.097 318.554 167.323 319.603L164.76 320.281C164.609 319.754 164.345 319.342 163.968 319.047C163.598 318.752 163.177 318.604 162.706 318.604C162.165 318.604 161.722 318.736 161.377 319C161.031 319.257 160.777 319.612 160.614 320.065C160.45 320.511 160.369 321.016 160.369 321.582C160.369 322.468 160.563 323.187 160.953 323.74C161.349 324.286 161.933 324.56 162.706 324.56C163.284 324.56 163.723 324.428 164.025 324.164C164.326 323.9 164.553 323.523 164.703 323.033L167.323 323.58C167.034 324.66 166.488 325.493 165.683 326.077C164.879 326.661 163.887 326.953 162.706 326.953ZM176.772 326.671V321.865C176.772 321.632 176.759 321.337 176.734 320.979C176.709 320.614 176.631 320.25 176.499 319.886C176.367 319.521 176.15 319.217 175.848 318.972C175.553 318.727 175.132 318.604 174.586 318.604C174.366 318.604 174.13 318.639 173.879 318.708C173.628 318.777 173.392 318.912 173.172 319.113C172.952 319.308 172.77 319.597 172.626 319.98C172.487 320.363 172.418 320.872 172.418 321.506L170.948 320.809C170.948 320.005 171.111 319.251 171.438 318.547C171.765 317.844 172.255 317.275 172.908 316.842C173.568 316.408 174.397 316.192 175.396 316.192C176.194 316.192 176.844 316.327 177.347 316.597C177.849 316.867 178.239 317.209 178.515 317.624C178.798 318.039 178.999 318.472 179.118 318.924C179.238 319.37 179.31 319.779 179.335 320.149C179.36 320.52 179.373 320.79 179.373 320.96V326.671H176.772ZM169.817 326.671V313.101H172.098V320.074H172.418V326.671H169.817ZM187.177 326.953C186.134 326.953 185.214 326.73 184.416 326.284C183.624 325.832 183.002 325.213 182.55 324.428C182.104 323.636 181.881 322.732 181.881 321.714C181.881 320.602 182.101 319.634 182.541 318.811C182.98 317.988 183.587 317.351 184.359 316.898C185.132 316.44 186.021 316.21 187.026 316.21C188.094 316.21 189.002 316.462 189.75 316.964C190.497 317.467 191.05 318.174 191.408 319.085C191.766 319.996 191.892 321.067 191.785 322.298H189.25V321.356C189.25 320.319 189.084 319.575 188.751 319.122C188.424 318.664 187.887 318.434 187.139 318.434C186.266 318.434 185.622 318.701 185.207 319.235C184.799 319.763 184.595 320.545 184.595 321.582C184.595 322.53 184.799 323.266 185.207 323.787C185.622 324.302 186.228 324.56 187.026 324.56C187.529 324.56 187.959 324.45 188.317 324.23C188.675 324.01 188.949 323.693 189.137 323.278L191.7 324.013C191.317 324.943 190.711 325.665 189.881 326.181C189.058 326.696 188.157 326.953 187.177 326.953ZM183.803 322.298V320.394H190.551V322.298H183.803ZM194.541 326.671V316.493H196.803V318.981L196.558 318.661C196.69 318.309 196.865 317.988 197.085 317.699C197.305 317.41 197.575 317.172 197.896 316.983C198.141 316.832 198.408 316.716 198.697 316.635C198.986 316.547 199.284 316.493 199.592 316.474C199.9 316.449 200.208 316.455 200.516 316.493V318.887C200.233 318.799 199.903 318.771 199.526 318.802C199.155 318.827 198.819 318.912 198.518 319.056C198.216 319.195 197.962 319.38 197.754 319.612C197.547 319.839 197.39 320.109 197.283 320.423C197.176 320.731 197.123 321.079 197.123 321.469V326.671H194.541ZM212.86 326.953C211.767 326.953 210.805 326.733 209.976 326.294C209.147 325.848 208.5 325.222 208.035 324.418C207.57 323.614 207.338 322.669 207.338 321.582V313.12L209.939 313.101V321.563C209.939 322.009 210.014 322.414 210.165 322.779C210.315 323.143 210.523 323.457 210.787 323.721C211.057 323.985 211.368 324.189 211.72 324.334C212.078 324.472 212.458 324.541 212.86 324.541C213.274 324.541 213.658 324.469 214.009 324.324C214.368 324.18 214.679 323.975 214.942 323.712C215.206 323.448 215.41 323.134 215.555 322.769C215.706 322.405 215.781 322.003 215.781 321.563V313.101H218.382V321.582C218.382 322.669 218.15 323.614 217.685 324.418C217.22 325.222 216.573 325.848 215.743 326.294C214.914 326.733 213.953 326.953 212.86 326.953ZM225.618 326.953C224.336 326.953 223.3 326.664 222.508 326.086C221.723 325.502 221.245 324.679 221.076 323.617L223.695 323.222C223.802 323.699 224.038 324.073 224.402 324.343C224.773 324.613 225.241 324.748 225.806 324.748C226.271 324.748 226.629 324.66 226.881 324.484C227.132 324.302 227.257 324.051 227.257 323.73C227.257 323.529 227.207 323.369 227.107 323.25C227.006 323.124 226.78 323.002 226.428 322.882C226.083 322.763 225.542 322.606 224.807 322.411C223.978 322.198 223.315 321.959 222.819 321.695C222.323 321.431 221.965 321.117 221.745 320.753C221.525 320.382 221.415 319.936 221.415 319.414C221.415 318.761 221.581 318.196 221.914 317.718C222.247 317.234 222.715 316.864 223.318 316.606C223.928 316.342 224.644 316.21 225.467 316.21C226.265 316.21 226.972 316.333 227.587 316.578C228.203 316.823 228.699 317.172 229.076 317.624C229.459 318.076 229.695 318.61 229.783 319.226L227.163 319.697C227.119 319.32 226.956 319.022 226.673 318.802C226.39 318.582 226.007 318.453 225.524 318.416C225.052 318.384 224.672 318.447 224.383 318.604C224.101 318.761 223.959 318.987 223.959 319.283C223.959 319.458 224.019 319.606 224.138 319.725C224.264 319.845 224.518 319.967 224.902 320.093C225.291 320.219 225.882 320.382 226.673 320.583C227.446 320.784 228.065 321.02 228.53 321.29C229.001 321.554 229.343 321.874 229.557 322.251C229.77 322.622 229.877 323.071 229.877 323.598C229.877 324.641 229.5 325.461 228.746 326.058C227.992 326.655 226.95 326.953 225.618 326.953ZM235.403 326.953C234.675 326.953 234.056 326.815 233.547 326.539C233.044 326.256 232.661 325.882 232.397 325.417C232.14 324.946 232.011 324.428 232.011 323.862C232.011 323.391 232.083 322.961 232.228 322.571C232.372 322.182 232.605 321.839 232.925 321.544C233.252 321.243 233.688 320.991 234.235 320.79C234.612 320.652 235.061 320.53 235.582 320.423C236.104 320.316 236.694 320.215 237.354 320.121C238.014 320.021 238.739 319.911 239.531 319.791L238.607 320.3C238.607 319.697 238.463 319.254 238.174 318.972C237.885 318.689 237.401 318.547 236.723 318.547C236.346 318.547 235.953 318.639 235.545 318.821C235.136 319.003 234.85 319.326 234.687 319.791L232.369 319.056C232.627 318.215 233.11 317.53 233.82 317.002C234.53 316.474 235.498 316.21 236.723 316.21C237.621 316.21 238.419 316.349 239.116 316.625C239.814 316.902 240.341 317.379 240.699 318.057C240.9 318.434 241.02 318.811 241.057 319.188C241.095 319.565 241.114 319.986 241.114 320.451V326.671H238.871V324.579L239.192 325.012C238.695 325.697 238.158 326.193 237.58 326.501C237.008 326.802 236.283 326.953 235.403 326.953ZM235.95 324.937C236.421 324.937 236.817 324.855 237.137 324.692C237.464 324.522 237.721 324.33 237.91 324.117C238.105 323.903 238.237 323.724 238.306 323.58C238.438 323.303 238.513 322.983 238.532 322.618C238.557 322.248 238.57 321.94 238.57 321.695L239.323 321.883C238.563 322.009 237.948 322.116 237.476 322.204C237.005 322.285 236.625 322.361 236.336 322.43C236.047 322.499 235.793 322.574 235.573 322.656C235.322 322.757 235.117 322.867 234.96 322.986C234.81 323.099 234.697 323.225 234.621 323.363C234.552 323.501 234.517 323.655 234.517 323.825C234.517 324.057 234.574 324.258 234.687 324.428C234.806 324.591 234.973 324.717 235.187 324.805C235.4 324.893 235.655 324.937 235.95 324.937ZM248.546 331.477C247.968 331.477 247.418 331.382 246.897 331.194C246.376 331.012 245.908 330.754 245.493 330.421C245.085 330.094 244.752 329.711 244.494 329.271L246.869 328.122C247.032 328.423 247.265 328.653 247.566 328.81C247.874 328.967 248.207 329.045 248.565 329.045C248.948 329.045 249.309 328.979 249.649 328.847C249.988 328.722 250.258 328.53 250.459 328.273C250.666 328.021 250.764 327.707 250.751 327.33V324.371H251.072V316.493H253.314V327.368C253.314 327.619 253.302 327.855 253.277 328.075C253.258 328.301 253.22 328.524 253.164 328.744C253 329.366 252.696 329.878 252.25 330.28C251.81 330.682 251.27 330.98 250.629 331.175C249.988 331.376 249.294 331.477 248.546 331.477ZM248.32 326.953C247.384 326.953 246.564 326.718 245.86 326.247C245.157 325.775 244.607 325.135 244.211 324.324C243.822 323.514 243.627 322.6 243.627 321.582C243.627 320.545 243.825 319.625 244.221 318.821C244.623 318.01 245.185 317.373 245.908 316.908C246.63 316.443 247.478 316.21 248.452 316.21C249.419 316.21 250.233 316.446 250.893 316.917C251.552 317.388 252.052 318.029 252.391 318.84C252.73 319.65 252.9 320.564 252.9 321.582C252.9 322.6 252.727 323.514 252.382 324.324C252.042 325.135 251.533 325.775 250.855 326.247C250.176 326.718 249.331 326.953 248.32 326.953ZM248.735 324.673C249.306 324.673 249.762 324.544 250.101 324.286C250.447 324.029 250.695 323.668 250.845 323.203C250.996 322.738 251.072 322.198 251.072 321.582C251.072 320.966 250.996 320.426 250.845 319.961C250.695 319.496 250.453 319.135 250.12 318.877C249.793 318.62 249.363 318.491 248.829 318.491C248.257 318.491 247.786 318.632 247.415 318.915C247.051 319.191 246.781 319.565 246.605 320.036C246.429 320.501 246.341 321.016 246.341 321.582C246.341 322.154 246.426 322.675 246.595 323.146C246.765 323.611 247.026 323.982 247.378 324.258C247.729 324.535 248.182 324.673 248.735 324.673ZM261.312 326.953C260.269 326.953 259.349 326.73 258.551 326.284C257.76 325.832 257.138 325.213 256.685 324.428C256.239 323.636 256.016 322.732 256.016 321.714C256.016 320.602 256.236 319.634 256.676 318.811C257.116 317.988 257.722 317.351 258.495 316.898C259.267 316.44 260.156 316.21 261.162 316.21C262.23 316.21 263.137 316.462 263.885 316.964C264.633 317.467 265.185 318.174 265.543 319.085C265.902 319.996 266.027 321.067 265.92 322.298H263.386V321.356C263.386 320.319 263.219 319.575 262.886 319.122C262.559 318.664 262.022 318.434 261.275 318.434C260.401 318.434 259.757 318.701 259.343 319.235C258.934 319.763 258.73 320.545 258.73 321.582C258.73 322.53 258.934 323.266 259.343 323.787C259.757 324.302 260.364 324.56 261.162 324.56C261.664 324.56 262.094 324.45 262.453 324.23C262.811 324.01 263.084 323.693 263.272 323.278L265.836 324.013C265.452 324.943 264.846 325.665 264.017 326.181C263.194 326.696 262.292 326.953 261.312 326.953ZM257.939 322.298V320.394H264.686V322.298H257.939Z" fill="#1A202C"/>
<path d="M133.894 354.812V343.504H135.292V354.812H133.894ZM144.315 354.812V350.563C144.315 350.16 144.279 349.773 144.205 349.401C144.137 349.029 144.014 348.697 143.836 348.404C143.663 348.105 143.428 347.87 143.129 347.697C142.836 347.524 142.465 347.438 142.014 347.438C141.664 347.438 141.344 347.498 141.056 347.618C140.774 347.734 140.53 347.912 140.326 348.152C140.122 348.393 139.962 348.697 139.847 349.063C139.737 349.425 139.682 349.851 139.682 350.343L138.763 350.061C138.763 349.239 138.91 348.535 139.203 347.948C139.501 347.357 139.918 346.904 140.452 346.59C140.991 346.27 141.624 346.111 142.352 346.111C142.902 346.111 143.37 346.197 143.758 346.37C144.145 346.543 144.467 346.773 144.724 347.061C144.98 347.344 145.182 347.663 145.328 348.019C145.475 348.37 145.577 348.728 145.634 349.095C145.697 349.456 145.729 349.799 145.729 350.124V354.812H144.315ZM138.268 354.812V346.331H139.525V348.6H139.682V354.812H138.268ZM151.895 355.047C151.036 355.047 150.306 354.856 149.704 354.474C149.107 354.087 148.652 353.555 148.338 352.88C148.024 352.205 147.861 351.435 147.851 350.571C147.861 349.686 148.026 348.909 148.345 348.239C148.67 347.564 149.133 347.037 149.735 346.66C150.338 346.283 151.063 346.095 151.911 346.095C152.806 346.095 153.576 346.315 154.219 346.755C154.869 347.194 155.303 347.796 155.523 348.561L154.141 348.977C153.963 348.485 153.672 348.103 153.269 347.831C152.871 347.558 152.413 347.422 151.895 347.422C151.314 347.422 150.835 347.558 150.458 347.831C150.081 348.098 149.801 348.469 149.618 348.946C149.434 349.417 149.34 349.959 149.335 350.571C149.345 351.514 149.563 352.275 149.987 352.856C150.416 353.432 151.052 353.72 151.895 353.72C152.45 353.72 152.911 353.595 153.277 353.343C153.644 353.087 153.921 352.718 154.11 352.236L155.523 352.605C155.23 353.396 154.772 354 154.149 354.419C153.526 354.838 152.775 355.047 151.895 355.047ZM157.754 354.812V346.331H159.003V348.38L158.798 348.113C158.898 347.851 159.026 347.611 159.183 347.391C159.346 347.171 159.526 346.99 159.725 346.849C159.945 346.671 160.194 346.535 160.471 346.441C160.749 346.346 161.031 346.291 161.319 346.276C161.607 346.255 161.877 346.273 162.128 346.331V347.642C161.835 347.564 161.513 347.543 161.162 347.579C160.811 347.616 160.487 347.744 160.188 347.964C159.916 348.158 159.704 348.393 159.552 348.671C159.406 348.948 159.304 349.249 159.246 349.574C159.189 349.893 159.16 350.22 159.16 350.555V354.812H157.754ZM167.763 355.047C166.931 355.047 166.203 354.864 165.58 354.498C164.962 354.126 164.481 353.61 164.135 352.951C163.79 352.286 163.617 351.511 163.617 350.626C163.617 349.7 163.787 348.899 164.127 348.223C164.467 347.543 164.941 347.019 165.549 346.653C166.161 346.281 166.878 346.095 167.7 346.095C168.554 346.095 169.279 346.291 169.876 346.684C170.478 347.077 170.928 347.637 171.226 348.365C171.53 349.092 171.661 349.959 171.619 350.964H170.205V350.461C170.19 349.419 169.978 348.642 169.569 348.129C169.161 347.611 168.554 347.351 167.747 347.351C166.884 347.351 166.227 347.629 165.776 348.184C165.326 348.739 165.101 349.535 165.101 350.571C165.101 351.571 165.326 352.346 165.776 352.896C166.227 353.445 166.868 353.72 167.7 353.72C168.26 353.72 168.747 353.592 169.161 353.335C169.575 353.079 169.899 352.71 170.135 352.228L171.478 352.691C171.148 353.44 170.65 354.021 169.985 354.435C169.326 354.843 168.585 355.047 167.763 355.047ZM164.63 350.964V349.841H170.896V350.964H164.63ZM176.253 355.047C175.62 355.047 175.088 354.932 174.659 354.702C174.235 354.466 173.913 354.157 173.693 353.775C173.478 353.393 173.371 352.974 173.371 352.519C173.371 352.074 173.455 351.689 173.622 351.364C173.795 351.035 174.036 350.762 174.345 350.548C174.654 350.328 175.023 350.155 175.452 350.029C175.855 349.919 176.305 349.825 176.803 349.747C177.305 349.663 177.813 349.587 178.326 349.519C178.839 349.451 179.318 349.385 179.763 349.323L179.261 349.613C179.276 348.859 179.125 348.302 178.805 347.94C178.491 347.579 177.947 347.399 177.172 347.399C176.659 347.399 176.208 347.516 175.821 347.752C175.439 347.982 175.169 348.359 175.012 348.883L173.685 348.482C173.889 347.739 174.285 347.155 174.871 346.731C175.457 346.307 176.229 346.095 177.187 346.095C177.957 346.095 178.617 346.234 179.166 346.511C179.721 346.783 180.119 347.197 180.36 347.752C180.48 348.014 180.556 348.299 180.588 348.608C180.619 348.912 180.635 349.231 180.635 349.566V354.812H179.394V352.778L179.685 352.966C179.365 353.652 178.918 354.17 178.342 354.521C177.771 354.872 177.075 355.047 176.253 355.047ZM176.465 353.877C176.968 353.877 177.402 353.788 177.769 353.61C178.14 353.427 178.439 353.189 178.664 352.896C178.889 352.597 179.036 352.273 179.104 351.922C179.182 351.66 179.224 351.37 179.229 351.05C179.24 350.726 179.245 350.477 179.245 350.304L179.732 350.516C179.276 350.579 178.829 350.639 178.389 350.697C177.949 350.754 177.533 350.817 177.14 350.885C176.748 350.948 176.394 351.024 176.08 351.113C175.85 351.186 175.633 351.281 175.428 351.396C175.229 351.511 175.067 351.66 174.942 351.843C174.821 352.021 174.761 352.244 174.761 352.511C174.761 352.741 174.819 352.961 174.934 353.171C175.054 353.38 175.237 353.55 175.483 353.681C175.735 353.812 176.062 353.877 176.465 353.877ZM186.509 355.04C185.499 355.04 184.669 354.82 184.02 354.38C183.376 353.935 182.98 353.314 182.834 352.519L184.263 352.291C184.378 352.752 184.643 353.118 185.056 353.39C185.47 353.657 185.983 353.791 186.595 353.791C187.176 353.791 187.632 353.67 187.962 353.43C188.292 353.189 188.456 352.862 188.456 352.448C188.456 352.207 188.401 352.014 188.292 351.867C188.182 351.715 187.954 351.574 187.608 351.443C187.268 351.312 186.752 351.155 186.061 350.972C185.313 350.773 184.724 350.566 184.294 350.351C183.865 350.137 183.559 349.888 183.376 349.605C183.192 349.323 183.101 348.98 183.101 348.577C183.101 348.079 183.237 347.645 183.509 347.273C183.781 346.896 184.161 346.605 184.648 346.401C185.14 346.197 185.711 346.095 186.36 346.095C187.004 346.095 187.58 346.197 188.087 346.401C188.595 346.605 189.004 346.896 189.312 347.273C189.627 347.645 189.812 348.079 189.87 348.577L188.441 348.836C188.373 348.38 188.153 348.022 187.781 347.76C187.415 347.498 186.941 347.359 186.36 347.344C185.81 347.323 185.362 347.42 185.017 347.634C184.677 347.849 184.506 348.139 184.506 348.506C184.506 348.71 184.569 348.885 184.695 349.032C184.826 349.179 185.064 349.317 185.41 349.448C185.76 349.579 186.268 349.728 186.933 349.896C187.682 350.084 188.271 350.291 188.7 350.516C189.134 350.736 189.443 350.998 189.627 351.302C189.81 351.6 189.901 351.969 189.901 352.409C189.901 353.225 189.6 353.869 188.998 354.341C188.396 354.807 187.566 355.04 186.509 355.04ZM195.937 355.047C195.104 355.047 194.377 354.864 193.754 354.498C193.136 354.126 192.654 353.61 192.309 352.951C191.963 352.286 191.79 351.511 191.79 350.626C191.79 349.7 191.961 348.899 192.301 348.223C192.641 347.543 193.115 347.019 193.722 346.653C194.335 346.281 195.052 346.095 195.874 346.095C196.727 346.095 197.452 346.291 198.049 346.684C198.651 347.077 199.101 347.637 199.4 348.365C199.704 349.092 199.834 349.959 199.793 350.964H198.379V350.461C198.363 349.419 198.151 348.642 197.743 348.129C197.335 347.611 196.727 347.351 195.921 347.351C195.057 347.351 194.4 347.629 193.95 348.184C193.5 348.739 193.275 349.535 193.275 350.571C193.275 351.571 193.5 352.346 193.95 352.896C194.4 353.445 195.042 353.72 195.874 353.72C196.434 353.72 196.921 353.592 197.335 353.335C197.748 353.079 198.073 352.71 198.308 352.228L199.651 352.691C199.321 353.44 198.824 354.021 198.159 354.435C197.499 354.843 196.759 355.047 195.937 355.047ZM192.803 350.964V349.841H199.07V350.964H192.803ZM205.499 355.047C204.708 355.047 204.03 354.851 203.465 354.458C202.899 354.061 202.462 353.524 202.153 352.849C201.85 352.173 201.698 351.411 201.698 350.563C201.698 349.715 201.85 348.953 202.153 348.278C202.462 347.603 202.899 347.071 203.465 346.684C204.03 346.291 204.706 346.095 205.491 346.095C206.292 346.095 206.965 346.289 207.509 346.676C208.054 347.064 208.465 347.595 208.742 348.27C209.025 348.946 209.166 349.71 209.166 350.563C209.166 351.406 209.025 352.168 208.742 352.849C208.465 353.524 208.054 354.061 207.509 354.458C206.965 354.851 206.295 355.047 205.499 355.047ZM205.672 353.767C206.242 353.767 206.711 353.631 207.077 353.359C207.444 353.082 207.713 352.702 207.886 352.22C208.064 351.733 208.153 351.181 208.153 350.563C208.153 349.935 208.064 349.383 207.886 348.906C207.713 348.425 207.446 348.05 207.085 347.783C206.724 347.511 206.266 347.375 205.711 347.375C205.135 347.375 204.659 347.516 204.282 347.799C203.91 348.082 203.632 348.464 203.449 348.946C203.271 349.427 203.182 349.967 203.182 350.563C203.182 351.165 203.274 351.71 203.457 352.197C203.64 352.678 203.915 353.061 204.282 353.343C204.653 353.626 205.117 353.767 205.672 353.767ZM208.153 354.812V348.569H207.996V343.504H209.402V354.812H208.153ZM216.003 354.812V343.504H220.408C221.083 343.504 221.659 343.642 222.136 343.92C222.617 344.197 222.984 344.564 223.235 345.019C223.492 345.469 223.62 345.956 223.62 346.48C223.62 347.092 223.463 347.629 223.149 348.09C222.835 348.55 222.411 348.867 221.877 349.04L221.861 348.655C222.589 348.849 223.154 349.205 223.557 349.723C223.96 350.241 224.162 350.859 224.162 351.576C224.162 352.236 224.026 352.807 223.753 353.288C223.486 353.77 223.099 354.144 222.591 354.411C222.089 354.678 221.492 354.812 220.801 354.812H216.003ZM217.416 353.477H220.534C220.953 353.477 221.327 353.401 221.657 353.249C221.987 353.092 222.246 352.872 222.434 352.589C222.628 352.307 222.725 351.966 222.725 351.569C222.725 351.186 222.638 350.843 222.466 350.54C222.298 350.236 222.06 349.995 221.751 349.817C221.447 349.634 221.094 349.542 220.691 349.542H217.416V353.477ZM217.416 348.223H220.392C220.727 348.223 221.029 348.152 221.296 348.011C221.568 347.865 221.782 347.66 221.939 347.399C222.102 347.137 222.183 346.831 222.183 346.48C222.183 345.993 222.018 345.595 221.688 345.286C221.358 344.977 220.926 344.823 220.392 344.823H217.416V348.223ZM227.533 358.581L229.174 354.121L229.198 355.44L225.491 346.331H226.96L229.865 353.657H229.363L232.088 346.331H233.509L228.892 358.581H227.533ZM242.552 355.047C241.971 355.047 241.429 354.927 240.927 354.686C240.429 354.445 240.003 354.115 239.647 353.697C239.296 353.273 239.045 352.786 238.893 352.236L240.236 351.875C240.33 352.246 240.497 352.568 240.738 352.841C240.979 353.108 241.259 353.317 241.578 353.469C241.903 353.616 242.241 353.689 242.591 353.689C243.052 353.689 243.466 353.579 243.832 353.359C244.204 353.134 244.497 352.838 244.712 352.472C244.926 352.1 245.034 351.694 245.034 351.254C245.034 350.799 244.921 350.388 244.696 350.021C244.476 349.65 244.18 349.357 243.809 349.142C243.437 348.927 243.031 348.82 242.591 348.82C242.094 348.82 241.667 348.925 241.311 349.134C240.961 349.338 240.683 349.59 240.479 349.888L239.238 349.417L239.584 343.504H245.654V344.831H240.259L240.88 344.25L240.589 348.985L240.283 348.584C240.597 348.249 240.971 347.99 241.406 347.807C241.845 347.624 242.293 347.532 242.749 347.532C243.45 347.532 244.078 347.697 244.633 348.027C245.188 348.351 245.628 348.796 245.953 349.362C246.277 349.922 246.439 350.553 246.439 351.254C246.439 351.951 246.261 352.587 245.905 353.163C245.549 353.733 245.076 354.191 244.484 354.537C243.898 354.877 243.254 355.047 242.552 355.047ZM250.202 354.812L249.26 353.869L259.641 343.504L260.584 344.446L250.202 354.812ZM258.228 355.047C257.71 355.047 257.236 354.922 256.807 354.67C256.382 354.414 256.042 354.074 255.786 353.65C255.529 353.22 255.401 352.744 255.401 352.22C255.401 351.707 255.532 351.236 255.793 350.807C256.055 350.377 256.401 350.035 256.83 349.778C257.259 349.522 257.725 349.393 258.228 349.393C258.746 349.393 259.22 349.522 259.649 349.778C260.079 350.029 260.419 350.37 260.67 350.799C260.927 351.223 261.055 351.697 261.055 352.22C261.055 352.744 260.927 353.22 260.67 353.65C260.419 354.074 260.079 354.414 259.649 354.67C259.22 354.922 258.746 355.047 258.228 355.047ZM258.228 353.814C258.516 353.814 258.78 353.741 259.021 353.595C259.267 353.448 259.461 353.254 259.602 353.013C259.749 352.773 259.822 352.508 259.822 352.22C259.822 351.932 259.749 351.668 259.602 351.427C259.461 351.181 259.267 350.987 259.021 350.846C258.78 350.699 258.516 350.626 258.228 350.626C257.94 350.626 257.676 350.699 257.435 350.846C257.194 350.987 257 351.181 256.854 351.427C256.707 351.668 256.634 351.932 256.634 352.22C256.634 352.508 256.707 352.773 256.854 353.013C257 353.254 257.194 353.448 257.435 353.595C257.676 353.741 257.94 353.814 258.228 353.814ZM251.616 348.922C251.097 348.922 250.624 348.796 250.194 348.545C249.765 348.289 249.422 347.948 249.166 347.524C248.914 347.095 248.789 346.619 248.789 346.095C248.789 345.582 248.92 345.111 249.181 344.681C249.443 344.252 249.789 343.909 250.218 343.653C250.647 343.396 251.113 343.268 251.616 343.268C252.134 343.268 252.605 343.396 253.029 343.653C253.459 343.904 253.801 344.244 254.058 344.674C254.315 345.098 254.443 345.571 254.443 346.095C254.443 346.619 254.315 347.095 254.058 347.524C253.801 347.948 253.459 348.289 253.029 348.545C252.605 348.796 252.134 348.922 251.616 348.922ZM251.616 347.689C251.904 347.689 252.168 347.616 252.409 347.469C252.655 347.323 252.849 347.129 252.99 346.888C253.137 346.647 253.21 346.383 253.21 346.095C253.21 345.807 253.137 345.543 252.99 345.302C252.849 345.056 252.655 344.862 252.409 344.721C252.168 344.574 251.904 344.501 251.616 344.501C251.328 344.501 251.063 344.574 250.823 344.721C250.582 344.862 250.388 345.056 250.241 345.302C250.095 345.543 250.022 345.807 250.022 346.095C250.022 346.383 250.095 346.647 250.241 346.888C250.388 347.129 250.582 347.323 250.823 347.469C251.063 347.616 251.328 347.689 251.616 347.689Z" fill="#A0AEC0"/>
<path d="M402.722 343.94V341.301H405.712V343.94H402.722ZM402.722 326.371V323.733H405.712V326.371H402.722ZM404.239 342.071C403.103 342.071 402.088 341.862 401.193 341.444C400.299 341.019 399.57 340.422 399.006 339.652C398.441 338.875 398.082 337.959 397.928 336.904L400.897 336.442C401.094 337.307 401.509 337.996 402.139 338.509C402.776 339.022 403.535 339.278 404.415 339.278C405.243 339.278 405.928 339.084 406.471 338.696C407.02 338.307 407.295 337.827 407.295 337.255C407.295 336.867 407.174 336.548 406.932 336.299C406.698 336.042 406.328 335.834 405.822 335.672L401.908 334.463C399.651 333.767 398.522 332.389 398.522 330.329C398.522 329.362 398.749 328.522 399.203 327.811C399.665 327.101 400.314 326.554 401.149 326.173C401.992 325.785 402.985 325.594 404.129 325.602C405.177 325.616 406.108 325.807 406.921 326.173C407.735 326.532 408.413 327.057 408.955 327.746C409.505 328.427 409.904 329.259 410.154 330.241L407.075 330.791C406.973 330.322 406.782 329.911 406.504 329.56C406.225 329.2 405.877 328.922 405.459 328.724C405.049 328.519 404.591 328.409 404.085 328.394C403.601 328.38 403.161 328.449 402.766 328.603C402.377 328.757 402.066 328.973 401.831 329.252C401.604 329.523 401.49 329.831 401.49 330.175C401.49 330.556 401.651 330.886 401.974 331.165C402.296 331.436 402.809 331.67 403.513 331.868L406.306 332.66C407.706 333.063 408.713 333.609 409.329 334.298C409.952 334.987 410.263 335.899 410.263 337.036C410.263 338.032 410.011 338.908 409.505 339.663C408.999 340.418 408.292 341.008 407.383 341.433C406.482 341.858 405.433 342.071 404.239 342.071ZM419.431 341.741V339.278H412.548V336.486L417.54 325.909H420.97L415.978 336.486H419.431V332.528H422.465V336.486H423.872V339.278H422.465V341.741H419.431ZM431.536 342.071C430.737 342.071 429.985 341.906 429.282 341.576C428.586 341.246 427.984 340.788 427.479 340.202C426.973 339.615 426.61 338.934 426.39 338.157L429.271 337.387C429.366 337.761 429.535 338.084 429.777 338.355C430.026 338.626 430.312 338.839 430.634 338.992C430.964 339.139 431.301 339.212 431.646 339.212C432.1 339.212 432.514 339.102 432.888 338.883C433.269 338.663 433.57 338.366 433.789 337.992C434.017 337.618 434.13 337.204 434.13 336.75C434.13 336.295 434.017 335.881 433.789 335.507C433.57 335.134 433.269 334.837 432.888 334.617C432.514 334.397 432.1 334.287 431.646 334.287C431.088 334.287 430.634 334.382 430.282 334.573C429.93 334.756 429.667 334.932 429.491 335.101L426.962 334.331L427.446 325.909H436.087V328.702H429.095L430.15 327.713L429.821 333.144L429.315 332.528C429.711 332.205 430.161 331.971 430.667 331.824C431.173 331.678 431.646 331.604 432.085 331.604C433.082 331.604 433.958 331.828 434.713 332.275C435.475 332.715 436.069 333.323 436.494 334.1C436.926 334.87 437.143 335.753 437.143 336.75C437.143 337.746 436.882 338.648 436.362 339.454C435.842 340.253 435.156 340.891 434.306 341.367C433.456 341.836 432.532 342.071 431.536 342.071ZM440.576 341.741V338.751H443.567V341.741H440.576ZM448.241 341.741L453.562 328.724H446.79V325.909H456.773V328.724L451.473 341.741H448.241ZM465.023 342.071C463.953 342.071 463 341.855 462.165 341.422C461.337 340.982 460.684 340.381 460.208 339.619C459.739 338.85 459.504 337.974 459.504 336.992C459.504 336.156 459.691 335.368 460.065 334.628C460.446 333.888 460.992 333.283 461.703 332.814L461.637 333.737C461.102 333.217 460.681 332.667 460.373 332.088C460.072 331.509 459.922 330.857 459.922 330.131C459.922 329.215 460.138 328.416 460.571 327.735C461.01 327.053 461.611 326.525 462.374 326.151C463.143 325.77 464.026 325.58 465.023 325.58C466.02 325.58 466.9 325.77 467.662 326.151C468.431 326.525 469.032 327.053 469.465 327.735C469.905 328.416 470.125 329.215 470.125 330.131C470.125 330.857 469.982 331.509 469.696 332.088C469.41 332.66 468.974 333.217 468.387 333.759V332.836C469.084 333.276 469.619 333.869 469.993 334.617C470.374 335.364 470.564 336.156 470.564 336.992C470.564 337.974 470.326 338.85 469.85 339.619C469.373 340.381 468.717 340.982 467.882 341.422C467.046 341.855 466.093 342.071 465.023 342.071ZM465.023 339.256C465.727 339.256 466.299 339.066 466.738 338.685C467.178 338.304 467.398 337.739 467.398 336.992C467.398 336.251 467.178 335.687 466.738 335.298C466.299 334.903 465.727 334.705 465.023 334.705C464.32 334.705 463.752 334.903 463.319 335.298C462.887 335.687 462.671 336.251 462.671 336.992C462.671 337.739 462.887 338.304 463.319 338.685C463.752 339.066 464.32 339.256 465.023 339.256ZM465.023 331.868C465.595 331.868 466.06 331.729 466.42 331.451C466.779 331.165 466.958 330.725 466.958 330.131C466.958 329.538 466.779 329.098 466.42 328.812C466.06 328.519 465.595 328.372 465.023 328.372C464.452 328.372 463.986 328.519 463.627 328.812C463.268 329.098 463.088 329.538 463.088 330.131C463.088 330.725 463.268 331.165 463.627 331.451C463.986 331.729 464.452 331.868 465.023 331.868Z" fill="#1A202C"/>
<rect opacity="0.2" x="63.5317" y="381.229" width="408.353" height="9.42353" rx="4.71176" fill="#FBAD18"/>
<rect x="63.5317" y="381.229" width="245.012" height="9.42353" rx="4.71176" fill="#FBAD18"/>
</svg>
